<?xml version="1.0" encoding="UTF-8"?>
<svg width="232px" height="42px" viewBox="0 0 232 42" version="1.1" xmlns="http://www.w3.org/2000/svg" xmlns:xlink="http://www.w3.org/1999/xlink">
    <!-- Generator: Sketch 47.1 (45422) - http://www.bohemiancoding.com/sketch -->
    <title>Group 4</title>
    <desc>Created with Sketch.</desc>
    <defs></defs>
    <g id="Website" stroke="none" stroke-width="1" fill="none" fill-rule="evenodd">
        <g id="Group-4">
            <g id="Group">
                <circle id="Oval" fill="#FFD701" cx="20" cy="20" r="20"></circle>
                <path d="M23.1809956,22.1481976 C23.1809956,22.1980421 23.1845565,22.2781481 23.1916785,22.388518 C23.1988005,22.498888 23.220166,22.6110364 23.2557758,22.7249666 C23.2913856,22.8388969 23.34658,22.9385844 23.4213606,23.024032 C23.4961412,23.1094797 23.6047494,23.1522029 23.7471886,23.1522029 C23.9679694,23.1522029 24.158479,23.0738771 24.3187231,22.917223 C24.4789672,22.7605689 24.6178433,22.5647542 24.7353557,22.329773 C24.852868,22.0947919 24.949013,21.8402328 25.0237936,21.5660881 C25.0985742,21.2919434 25.1608904,21.0338241 25.2107441,20.7917223 C25.2534759,20.5709824 25.319353,20.4107704 25.4083775,20.3110814 C25.497402,20.2113925 25.593547,20.1562083 25.6968155,20.1455274 C25.8000839,20.1348464 25.9051312,20.1615484 26.0119606,20.2256342 C26.11879,20.2897199 26.2113741,20.3733862 26.2897157,20.4766355 C26.3680572,20.5798848 26.4268125,20.6955935 26.4659833,20.823765 C26.5051541,20.9519366 26.5104955,21.0729856 26.4820076,21.1869159 C26.3823002,21.5500686 26.2523264,21.9310171 26.0920823,22.329773 C25.9318382,22.7285289 25.7270849,23.0952364 25.4778163,23.4299065 C25.2285477,23.7645767 24.9294298,24.0422775 24.5804538,24.2630174 C24.2314777,24.4837572 23.8219712,24.5941255 23.3519218,24.5941255 C23.0599214,24.5941255 22.8017543,24.5389414 22.5774125,24.4285714 C22.3530708,24.3182015 22.1607807,24.1704504 22.0005366,23.9853138 C21.8402925,23.8001771 21.719221,23.5830008 21.6373185,23.3337784 C21.5554159,23.0845559 21.5144653,22.8210962 21.5144653,22.5433912 L21.5144653,17.3845127 L17.9677469,17.35247 L17.9677469,17.8437917 C18.4662841,18.4632875 18.9167413,19.1023554 19.319132,19.7610147 C19.7215228,20.419674 20.0633717,21.1121459 20.3446892,21.8384513 C20.6260066,22.5647566 20.8432231,23.330214 20.9963453,24.1348465 C21.1494674,24.9394789 21.2260273,25.793943 21.2260273,26.6982644 C21.2260273,27.6097064 21.1565893,28.4517095 21.017711,29.2242991 C20.8788328,29.9968886 20.6829819,30.6626585 20.4301523,31.2216288 C20.1773227,31.7805991 19.871083,32.2167319 19.511424,32.5300401 C19.151765,32.8433483 18.7547217,33 18.3202821,33 C17.9356963,33 17.6152129,32.9056529 17.3588223,32.7169559 C17.1024317,32.528259 16.8976785,32.2790403 16.7445563,31.9692924 C16.5914342,31.6595445 16.4810454,31.3088582 16.4133868,30.917223 C16.3457282,30.5255877 16.3118994,30.1268378 16.3118994,29.7209613 L16.3118994,17.7263017 C16.2905335,17.7049398 16.2673875,17.6800179 16.2424606,17.6515354 C16.2175338,17.6230528 16.1943878,17.5981309 16.1730219,17.576769 C16.0020948,17.398753 15.8471945,17.238541 15.7083163,17.0961282 C15.5694381,16.9537154 15.5,16.7935033 15.5,16.6154873 C15.5,16.5015571 15.5391702,16.3911888 15.6175118,16.2843792 C15.6958533,16.1775696 15.8240467,16.1134848 16.0020957,16.0921228 C16.0377055,16.0921228 16.0786561,16.0885626 16.1249489,16.0814419 C16.1712416,16.0743213 16.2335578,16.070761 16.3118994,16.070761 L16.3118994,10.0680908 C16.3118994,9.91143669 16.2994362,9.78682734 16.2745093,9.69425901 C16.2495824,9.60169068 16.2246559,9.52870521 16.1997291,9.4753004 C16.1748022,9.42189559 16.1498757,9.37917239 16.1249489,9.34712951 C16.100022,9.31508662 16.0875588,9.28126409 16.0875588,9.24566088 C16.0875588,9.20293704 16.1089243,9.16733437 16.1516561,9.1388518 C16.1943879,9.11036924 16.2513627,9.08544737 16.3225823,9.06408545 C16.3938019,9.04272352 16.4703618,9.02670232 16.5522644,9.01602136 C16.6341669,9.0053404 16.7142877,9 16.7926293,9 C17.1558493,9 17.4425039,9.09434708 17.6526017,9.28304406 C17.8626995,9.47174104 17.9677469,9.697818 17.9677469,9.96128171 L17.9677469,15.953271 C18.4591621,15.9247885 18.923863,15.8891858 19.3618636,15.8464619 C19.7998641,15.8037381 20.1897856,15.7610149 20.5316397,15.7182911 L21.3862706,15.611482 C21.6141734,15.5829994 21.7601714,15.5687583 21.824269,15.5687583 C22.1233913,15.5687583 22.3619734,15.6025809 22.5400224,15.670227 C22.7180714,15.7378731 22.8551671,15.8268797 22.9513136,15.9372497 C23.04746,16.0476196 23.1097762,16.1704488 23.1382641,16.305741 C23.1667519,16.4410332 23.1809956,16.572763 23.1809956,16.7009346 L23.1809956,22.1481976 Z M19.5701799,26.6982644 C19.5701799,26.1998195 19.5363511,25.6800205 19.4686925,25.1388518 C19.4010338,24.5976831 19.2995474,24.049402 19.1642302,23.493992 C19.0289129,22.938582 18.8615494,22.3831803 18.6621345,21.8277704 C18.4627196,21.2723604 18.2312594,20.7311998 17.9677469,20.2042724 L17.9677469,29.7209613 C17.9677469,29.8918567 17.9748687,30.0769905 17.9891126,30.2763685 C18.0033565,30.4757464 18.0300635,30.6573201 18.0692343,30.8210948 C18.1084051,30.9848695 18.161819,31.1219398 18.2294776,31.2323097 C18.2971362,31.3426797 18.3843789,31.3978638 18.4912083,31.3978638 C18.6478914,31.3978638 18.7938894,31.2839353 18.9292067,31.0560748 C19.0645239,30.8282143 19.1784736,30.5060101 19.271059,30.0894526 C19.3636445,29.6728951 19.4366435,29.178018 19.4900582,28.6048064 C19.5434729,28.0315948 19.5701799,27.3960872 19.5701799,26.6982644 Z M22.4545593,13.4646195 C22.2765103,13.4646195 22.1073663,13.4290168 21.9471222,13.3578104 C21.7868781,13.286604 21.648002,13.1904768 21.5304896,13.0694259 C21.4129773,12.948375 21.3186127,12.8077445 21.2473931,12.64753 C21.1761735,12.4873156 21.1405642,12.3146427 21.1405642,12.129506 C21.1405642,11.9372487 21.1761735,11.7592354 21.2473931,11.5954606 C21.3186127,11.4316859 21.4129773,11.2910553 21.5304896,11.1735648 C21.648002,11.0560742 21.7868781,10.9635072 21.9471222,10.8958611 C22.1073663,10.8282151 22.2765103,10.7943925 22.4545593,10.7943925 C22.6468522,10.7943925 22.8248986,10.8282151 22.9887037,10.8958611 C23.1525087,10.9635072 23.2931653,11.0560742 23.4106777,11.1735648 C23.52819,11.2910553 23.6207741,11.4316859 23.6884327,11.5954606 C23.7560914,11.7592354 23.7899202,11.9372487 23.7899202,12.129506 C23.7899202,12.3146427 23.7560914,12.4873156 23.6884327,12.64753 C23.6207741,12.8077445 23.52819,12.948375 23.4106777,13.0694259 C23.2931653,13.1904768 23.1525087,13.286604 22.9887037,13.3578104 C22.8248986,13.4290168 22.6468522,13.4646195 22.4545593,13.4646195 Z" id="fi" fill="#000000"></path>
            </g>
            <g id="Group" transform="translate(50.000000, 2.000000)" fill="#000000">
                <path d="M4.0896375,14.2805018 L4.0896375,15.0767055 C4.9157875,16.0795127 5.6623125,17.1087952 6.3292125,18.1645527 C6.99595,19.2204727 7.5625875,20.3322667 8.0286375,21.5002594 C8.49485,22.6680897 8.85495,23.9008897 9.1086125,25.1986594 C9.3624375,26.4962667 9.48935,27.8942521 9.48935,29.3924533 C9.48935,30.9025115 9.3741375,32.2975733 9.1440375,33.5774764 C8.9139375,34.8575418 8.5892625,35.9605648 8.1703375,36.8865455 C7.7514125,37.8126885 7.2437625,38.5353139 6.647875,39.0542594 C6.051825,39.5733673 5.3938625,39.8329212 4.673825,39.8329212 C4.0365,39.8329212 3.5052875,39.6766691 3.0805125,39.3640024 C2.655575,39.0513358 2.316275,38.6384533 2.06245,38.1253552 C1.8087875,37.6120945 1.6258125,37.031103 1.5136875,36.3822182 C1.4015625,35.7334958 1.3455,35.0727539 1.3455,34.4003176 L1.3455,14.8998255 C1.310075,14.864417 1.271725,14.8231612 1.23045,14.7758958 C1.189175,14.7287927 1.150825,14.6815273 1.1154,14.6344242 C0.8321625,14.3511564 0.5754125,14.0886788 0.34515,13.8468291 C0.11505,13.6049794 0,13.3366545 0,13.0416921 C0,12.8648121 0.0648375,12.6848461 0.194675,12.5019564 C0.3245125,12.3192291 0.5370625,12.21008 0.8321625,12.1746715 C0.89115,12.1746715 0.9618375,12.1688242 1.04455,12.1569673 C1.1271,12.1451103 1.227525,12.139263 1.3455,12.139263 L1.3455,1.84042909 C1.3455,1.58087515 1.3248625,1.37443394 1.2835875,1.22110545 C1.24215,1.06777697 1.200875,0.946770909 1.1596,0.858249697 C1.118325,0.769890909 1.07705,0.699073939 1.0356125,0.645961212 C0.9943375,0.592848485 0.9737,0.536812121 0.9737,0.477852121 C0.9737,0.407035152 1.009125,0.348075152 1.079975,0.300972121 C1.150825,0.253706667 1.2452375,0.212450909 1.3632125,0.177042424 C1.4811875,0.141633939 1.6081,0.115158788 1.7437875,0.0974545455 C1.8796375,0.079750303 2.0124,0.0708169697 2.1422375,0.0708169697 C2.7441375,0.0708169697 3.219125,0.227231515 3.5673625,0.539735758 C3.9154375,0.852402424 4.0896375,1.22695273 4.0896375,1.66338667 L4.0896375,11.9269745 C4.5144125,11.8915661 4.93935,11.8590812 5.3642875,11.82952 C5.789225,11.8001212 6.2023,11.77056 6.6035125,11.7411612 C7.0048875,11.7116 7.3736,11.6909721 7.709975,11.6791152 C8.04635,11.6674206 8.338525,11.6614109 8.5863375,11.6614109 C8.9877125,11.6614109 9.3357875,11.7382376 9.6308875,11.8915661 C9.9259875,12.0448945 10.0735375,12.3102958 10.0735375,12.6877697 C10.0735375,12.8175467 10.05875,13.0062836 10.029175,13.254143 C9.9997625,13.50184 9.9584875,13.7555467 9.90535,14.0149382 C9.8522125,14.2744921 9.7813625,14.4986376 9.6928,14.6873745 C9.6044,14.8761115 9.50105,14.9706424 9.383075,14.9706424 C9.3240875,14.9706424 9.279725,14.9498521 9.2503125,14.9085964 C9.2207375,14.8673406 9.1736125,14.8231612 9.1086125,14.7758958 C9.043775,14.7287927 8.9493625,14.6815273 8.825375,14.6344242 C8.7013875,14.5871588 8.5154875,14.5517503 8.267675,14.5281988 L4.0896375,14.2805018 Z M6.7452125,29.3924533 C6.7452125,28.5666885 6.68915,27.7142861 6.577025,26.8354085 C6.4649,25.9565309 6.2967125,25.0659588 6.0724625,24.1633673 C5.8482125,23.2609382 5.570825,22.3643564 5.2403,21.4737842 C4.9099375,20.5830497 4.526275,19.7189527 4.0896375,18.8813309 L4.0896375,34.4003176 C4.0896375,34.683423 4.1013375,34.9902424 4.1250625,35.3206133 C4.148625,35.6508218 4.192825,35.9516315 4.257825,36.2230424 C4.3226625,36.4942909 4.411225,36.72136 4.52335,36.9042497 C4.635475,37.0871394 4.7801,37.1785842 4.9570625,37.1785842 C5.2167375,37.1785842 5.4587,36.9898473 5.68295,36.6123733 C5.9072,36.234737 6.096025,35.7010109 6.249425,35.0108703 C6.402825,34.3207297 6.5238875,33.5008121 6.61245,32.5511176 C6.70085,31.6015855 6.7452125,30.5485891 6.7452125,29.3924533 Z" id="Fill-1"></path>
                <path d="M18.96115,25.9065042 C18.5362125,25.9065042 18.1025,25.8415345 17.65985,25.7117576 C17.2173625,25.5819806 16.8159875,25.3578352 16.45605,25.0393212 C16.0961125,24.7208073 15.8010125,24.2991539 15.57075,23.7741988 C15.34065,23.2492436 15.2256,22.5855782 15.2256,21.7833648 C15.2256,20.6155345 15.381925,19.3796485 15.6947375,18.0761939 C16.00755,16.772577 16.458975,15.3362594 17.049175,13.7672412 L14.287325,13.7672412 L13.8801,13.7672412 C13.8682375,14.1211636 13.8476,14.5694545 13.8181875,15.1121139 C13.7886125,15.6547733 13.7384,16.2328412 13.6677125,16.8463176 C13.5968625,17.4597939 13.505375,18.0791176 13.39325,18.7042885 C13.281125,19.3296218 13.1425125,19.9076897 12.97725,20.4384921 C12.8591125,20.8159661 12.6732125,21.0342642 12.41955,21.0932242 C12.165725,21.1521842 11.9149875,21.1080048 11.667175,20.9605236 C11.4192,20.8130424 11.218675,20.5978303 11.0651125,20.3147248 C10.9117125,20.031457 10.8762875,19.736657 10.959,19.4298376 C11.0534125,19.0642206 11.1359625,18.6188533 11.2068125,18.0938982 C11.2776625,17.568943 11.333725,17.0144267 11.375,16.4305115 C11.416275,15.8464339 11.448775,15.2625188 11.4723375,14.6786036 C11.4960625,14.0946885 11.5136125,13.572657 11.525475,13.1125091 C11.076975,12.8648121 10.705175,12.5492218 10.410075,12.1657382 C10.1151375,11.782417 9.9675875,11.3251927 9.9675875,10.7943903 C9.9675875,10.5466933 10.0176375,10.3196242 10.1180625,10.113183 C10.218325,9.90674182 10.3510875,9.72969939 10.51635,9.58221818 C10.6816125,9.43473697 10.8762875,9.32266424 11.1005375,9.246 C11.3247875,9.16933576 11.55505,9.13100364 11.791,9.13100364 C12.00355,9.13100364 12.2247125,9.16056485 12.454975,9.21952485 C12.685075,9.27848485 12.903475,9.3847103 13.1100125,9.53803879 C13.31655,9.69136727 13.50245,9.89196121 13.6677125,10.1396582 C13.832975,10.3873552 13.9686625,10.6941745 14.074775,11.0597915 C14.369875,11.0952 14.620775,11.1218376 14.8273125,11.1395418 C15.03385,11.1570836 15.2078875,11.1718642 15.3495875,11.1837212 C15.491125,11.1955782 15.6092625,11.2014255 15.703675,11.2014255 L17.881175,11.2014255 C17.98745,11.2014255 18.143775,11.2662327 18.3503125,11.3960097 C18.55685,11.5257867 18.7604625,11.6938958 18.96115,11.900337 C19.1618375,12.1067782 19.330025,12.328 19.4657125,12.5640024 C19.6014,12.7998424 19.6516125,13.0239879 19.6161875,13.2364388 C19.6161875,13.3072558 19.5749125,13.4782885 19.4922,13.749537 C19.40965,14.0209479 19.309225,14.3630133 19.19125,14.7758958 C19.073275,15.1887782 18.9434375,15.6637067 18.8017375,16.2003564 C18.6602,16.7371685 18.5303625,17.3004558 18.412225,17.8903806 C18.29425,18.480143 18.1939875,19.0906958 18.111275,19.7218764 C18.028725,20.353057 17.98745,20.969457 17.98745,21.5710764 C17.98745,21.8187733 18.0168625,22.060623 18.07585,22.2966255 C18.135,22.5324655 18.2234,22.7418303 18.3415375,22.92472 C18.4595125,23.1076097 18.6099875,23.2521673 18.7929625,23.3582303 C18.9759375,23.4644558 19.19125,23.5175685 19.4390625,23.5175685 C19.8521375,23.5175685 20.206225,23.3877915 20.501325,23.1282376 C20.796425,22.8686836 21.0442375,22.5443224 21.244925,22.1549915 C21.4456125,21.7656606 21.6077875,21.3440073 21.731775,20.8897067 C21.8557625,20.4355685 21.95895,20.0079055 22.0416625,19.60688 C22.11235,19.2292436 22.2304875,18.9550715 22.39575,18.7840388 C22.56085,18.6128436 22.732125,18.5274085 22.9090875,18.5274085 C23.0507875,18.5274085 23.198175,18.5715879 23.3517375,18.6601091 C23.5051375,18.7486303 23.64375,18.8636267 23.7677375,19.0050982 C23.891725,19.1467321 23.9919875,19.3060703 24.0686875,19.4829503 C24.1453875,19.6598303 24.1837375,19.8368727 24.1837375,20.0137527 C24.1837375,20.0728752 24.1778875,20.1199782 24.166025,20.1553867 C24.154325,20.1907952 24.1483125,20.2262036 24.1483125,20.2616121 C23.98305,20.8632315 23.7677375,21.4944121 23.5022125,22.1549915 C23.236525,22.8155709 22.897225,23.4232 22.48415,23.9777164 C22.071075,24.5320703 21.57545,24.9922182 20.9971125,25.3578352 C20.418775,25.7236145 19.7400125,25.9065042 18.96115,25.9065042 Z" id="Fill-2"></path>
                <path d="M30.5397625,14.3511564 C30.5397625,15.0235927 30.4247125,15.7137333 30.19445,16.4215782 C29.96435,17.129423 29.622125,17.7989358 29.1676125,18.4301164 C28.7132625,19.0611345 28.1526375,19.6275079 27.4857375,20.1289115 C26.819,20.6301527 26.0489125,21.0107127 25.175475,21.2702667 C25.29345,21.5769236 25.449775,21.8689624 25.6446125,22.1462206 C25.8392875,22.4233164 26.072475,22.6622424 26.34385,22.8628364 C26.6153875,23.0634303 26.931125,23.2226061 27.2910625,23.3405261 C27.651,23.4586085 28.067,23.5175685 28.539225,23.5175685 C29.2474,23.5175685 29.85515,23.3848679 30.3626375,23.1194667 C30.870125,22.853903 31.2979875,22.5030667 31.646225,22.0664703 C31.9944625,21.6300364 32.274775,21.1404897 32.4871625,20.5978303 C32.69955,20.0551709 32.8589625,19.5065018 32.965075,18.9521479 C33.0477875,18.55096 33.215975,18.2826352 33.4696375,18.1470109 C33.7234625,18.0112242 33.9831375,17.9789018 34.2486625,18.0495564 C34.5141875,18.1203733 34.74445,18.2707782 34.939125,18.5007709 C35.1338,18.7309261 35.2135875,19.0050982 35.1781625,19.3236121 C35.130875,19.6893915 35.05125,20.1081212 34.939125,20.5801261 C34.827,21.0519685 34.6588125,21.5298206 34.4345625,22.0133576 C34.2103125,22.497057 33.92415,22.9719855 33.5759125,23.4379806 C33.2278375,23.9039758 32.799975,24.3197818 32.292325,24.6853988 C31.7848375,25.0511782 31.1887875,25.3461406 30.5043375,25.5702861 C29.819725,25.7944315 29.03485,25.9065042 28.1497125,25.9065042 C27.3235625,25.9065042 26.5239,25.7442424 25.7508875,25.4198812 C24.9777125,25.0953576 24.2932625,24.6293624 23.6972125,24.0218958 C23.1011625,23.4142667 22.6230875,22.6651661 22.26315,21.7745939 C21.9032125,20.8838594 21.7231625,19.8722812 21.7231625,18.739697 C21.7231625,17.5954182 21.882575,16.5307273 22.2012375,15.5456242 C22.5199,14.5606836 22.938825,13.7082812 23.458175,12.9885794 C23.977525,12.26904 24.5675625,11.7057527 25.2286125,11.2987176 C25.8895,10.8916824 26.5681,10.6881648 27.264575,10.6881648 C27.7720625,10.6881648 28.2293375,10.7766861 28.6365625,10.9537285 C29.0437875,11.1306085 29.3889375,11.3812291 29.672175,11.7057527 C29.9554125,12.0301139 30.1708875,12.4165212 30.3184375,12.8648121 C30.4659875,13.313103 30.5397625,13.808497 30.5397625,14.3511564 Z M24.6974,18.6336339 C24.6974,18.739697 24.7034125,18.8459224 24.7151125,18.9521479 C24.726975,19.0582109 24.732825,19.1702836 24.732825,19.2883661 C25.181325,19.0759152 25.58855,18.8046667 25.9543375,18.4742958 C26.3202875,18.1439248 26.6331,17.7664509 26.892775,17.3417115 C27.15245,16.9171345 27.352975,16.454063 27.494675,15.9526594 C27.6362125,15.4512558 27.7070625,14.9292242 27.7070625,14.3865648 C27.7070625,13.9855394 27.6393,13.6728727 27.50345,13.4487273 C27.3677625,13.2245818 27.1818625,13.1125091 26.94575,13.1125091 C26.6508125,13.1125091 26.3882125,13.2127248 26.15795,13.4133188 C25.92785,13.6139127 25.7271625,13.8763903 25.55605,14.2007515 C25.3849375,14.5252752 25.2432375,14.8908921 25.1311125,15.2979273 C25.0189875,15.7049624 24.9276625,16.1149212 24.8568125,16.5278036 C24.7859625,16.9406861 24.738675,17.3329406 24.7151125,17.7045673 C24.69155,18.0761939 24.6857,18.3857745 24.6974,18.6336339 Z" id="Fill-3"></path>
                <path d="M41.303925,14.3511564 C41.303925,15.0235927 41.188875,15.7137333 40.958775,16.4215782 C40.7285125,17.129423 40.3862875,17.7989358 39.9319375,18.4301164 C39.477425,19.0611345 38.9168,19.6275079 38.2500625,20.1289115 C37.5831625,20.6301527 36.813075,21.0107127 35.9396375,21.2702667 C36.0576125,21.5769236 36.2141,21.8689624 36.408775,22.1462206 C36.6036125,22.4233164 36.8366375,22.6622424 37.108175,22.8628364 C37.37955,23.0634303 37.6952875,23.2226061 38.055225,23.3405261 C38.415325,23.4586085 38.831325,23.5175685 39.3033875,23.5175685 C40.0115625,23.5175685 40.6193125,23.3848679 41.1269625,23.1194667 C41.63445,22.853903 42.0623125,22.5030667 42.4103875,22.0664703 C42.758625,21.6300364 43.0389375,21.1404897 43.251325,20.5978303 C43.463875,20.0551709 43.623125,19.5065018 43.7294,18.9521479 C43.81195,18.55096 43.9801375,18.2826352 44.2339625,18.1470109 C44.487625,18.0112242 44.7473,17.9789018 45.012825,18.0495564 C45.2785125,18.1203733 45.5086125,18.2707782 45.7032875,18.5007709 C45.898125,18.7309261 45.97775,19.0050982 45.942325,19.3236121 C45.8952,19.6893915 45.8154125,20.1081212 45.7032875,20.5801261 C45.5911625,21.0519685 45.422975,21.5298206 45.198725,22.0133576 C44.974475,22.497057 44.6883125,22.9719855 44.340075,23.4379806 C43.992,23.9039758 43.5641375,24.3197818 43.05665,24.6853988 C42.5491625,25.0511782 41.9531125,25.3461406 41.2685,25.5702861 C40.58405,25.7944315 39.799175,25.9065042 38.913875,25.9065042 C38.087725,25.9065042 37.2880625,25.7442424 36.51505,25.4198812 C35.7420375,25.0953576 35.057425,24.6293624 34.461375,24.0218958 C33.865325,23.4142667 33.3874125,22.6651661 33.0273125,21.7745939 C32.667375,20.8838594 32.4874875,19.8722812 32.4874875,18.739697 C32.4874875,17.5954182 32.6467375,16.5307273 32.9654,15.5456242 C33.2840625,14.5606836 33.70315,13.7082812 34.2223375,12.9885794 C34.7416875,12.26904 35.3318875,11.7057527 35.992775,11.2987176 C36.6536625,10.8916824 37.332425,10.6881648 38.0287375,10.6881648 C38.536225,10.6881648 38.9936625,10.7766861 39.400725,10.9537285 C39.80795,11.1306085 40.1532625,11.3812291 40.4365,11.7057527 C40.7197375,12.0301139 40.93505,12.4165212 41.0826,12.8648121 C41.23015,13.313103 41.303925,13.808497 41.303925,14.3511564 Z M35.461725,18.6336339 C35.461725,18.739697 35.467575,18.8459224 35.4794375,18.9521479 C35.4911375,19.0582109 35.4969875,19.1702836 35.4969875,19.2883661 C35.9454875,19.0759152 36.3527125,18.8046667 36.7186625,18.4742958 C37.08445,18.1439248 37.3972625,17.7664509 37.6569375,17.3417115 C37.9166125,16.9171345 38.1173,16.454063 38.2588375,15.9526594 C38.4005375,15.4512558 38.4713875,14.9292242 38.4713875,14.3865648 C38.4713875,13.9855394 38.4034625,13.6728727 38.267775,13.4487273 C38.131925,13.2245818 37.946025,13.1125091 37.710075,13.1125091 C37.414975,13.1125091 37.152375,13.2127248 36.922275,13.4133188 C36.6920125,13.6139127 36.4914875,13.8763903 36.320375,14.2007515 C36.1491,14.5252752 36.0075625,14.8908921 35.8954375,15.2979273 C35.7833125,15.7049624 35.691825,16.1149212 35.620975,16.5278036 C35.550125,16.9406861 35.503,17.3329406 35.4794375,17.7045673 C35.4557125,18.0761939 35.4498625,18.3857745 35.461725,18.6336339 Z" id="Fill-4"></path>
                <path d="M53.6264625,7.46761697 C53.3313625,7.46761697 53.05105,7.40865697 52.785525,7.29073697 C52.52,7.17265455 52.2899,7.01347879 52.0950625,6.81288485 C51.9003875,6.61229091 51.7439,6.37937455 51.625925,6.11397333 C51.50795,5.8484097 51.4489625,5.56238061 51.4489625,5.25572364 C51.4489625,4.9372097 51.50795,4.64224727 51.625925,4.37083636 C51.7439,4.09958788 51.9003875,3.86650909 52.0950625,3.67192485 C52.2899,3.47717818 52.52,3.3238497 52.785525,3.21177697 C53.05105,3.09970424 53.3313625,3.04366788 53.6264625,3.04366788 C53.945125,3.04366788 54.240225,3.09970424 54.5116,3.21177697 C54.7831375,3.3238497 55.0161625,3.47717818 55.211,3.67192485 C55.405675,3.86650909 55.559075,4.09958788 55.6712,4.37083636 C55.783325,4.64224727 55.8393875,4.9372097 55.8393875,5.25572364 C55.8393875,5.56238061 55.783325,5.8484097 55.6712,6.11397333 C55.559075,6.37937455 55.405675,6.61229091 55.211,6.81288485 C55.0161625,7.01347879 54.7831375,7.17265455 54.5116,7.29073697 C54.240225,7.40865697 53.945125,7.46761697 53.6264625,7.46761697 Z M54.458625,21.8541818 C54.458625,21.9366933 54.464475,22.0693939 54.4763375,22.2522836 C54.4880375,22.4351733 54.5234625,22.6209867 54.58245,22.8097236 C54.6414375,22.9984606 54.73585,23.1636461 54.8656875,23.30528 C54.995525,23.4467515 55.1785,23.5175685 55.4146125,23.5175685 C55.7687,23.5175685 56.078425,23.3877915 56.34395,23.1282376 C56.6096375,22.8686836 56.8397375,22.5443224 57.0344125,22.1549915 C57.22925,21.7656606 57.391425,21.3440073 57.5212625,20.8897067 C57.6511,20.4355685 57.757375,20.0079055 57.839925,19.60688 C57.910775,19.2411006 58.019975,18.9756994 58.167525,18.8105139 C58.315075,18.6453285 58.474325,18.5538836 58.6456,18.5361794 C58.8167125,18.5184752 58.987825,18.562817 59.1589375,18.66888 C59.33005,18.7751055 59.48345,18.9138158 59.6193,19.0848485 C59.7549875,19.2558812 59.85525,19.4475418 59.92025,19.6598303 C59.9850875,19.8722812 59.994025,20.0728752 59.9467375,20.2616121 C59.781475,20.8632315 59.5661625,21.4944121 59.3006375,22.1549915 C59.03495,22.8155709 58.69565,23.4232 58.282575,23.9777164 C57.8695,24.5320703 57.3737125,24.9922182 56.7955375,25.3578352 C56.2172,25.7236145 55.5384375,25.9065042 54.759575,25.9065042 C54.27565,25.9065042 53.8448625,25.8150594 53.4672125,25.6321697 C53.0894,25.44928 52.7707375,25.2045067 52.5110625,24.8978497 C52.25155,24.5910303 52.0537875,24.2312606 51.9181,23.8183782 C51.78225,23.4054958 51.7144875,22.9690618 51.7144875,22.5089139 L51.7144875,12.8294036 C51.7144875,12.4873382 51.6878375,12.2394788 51.6348625,12.0861503 C51.581725,11.9328218 51.555075,11.7911879 51.555075,11.6614109 C51.555075,11.4845309 51.6494875,11.3399733 51.8383125,11.2279006 C52.0273,11.1158279 52.25155,11.0597915 52.5110625,11.0597915 C53.113125,11.0597915 53.5881125,11.2162061 53.93635,11.5287103 C54.284425,11.841377 54.458625,12.2159273 54.458625,12.6523612 L54.458625,21.8541818 Z" id="Fill-5"></path>
                <path d="M60.725925,14.1742764 C60.8557625,13.9265794 60.982675,13.5932848 61.1066625,13.1743927 C61.2304875,12.755663 61.348625,12.2925915 61.46075,11.7853406 C61.572875,11.2780897 61.6760625,10.7472873 61.770475,10.1927709 C61.8648875,9.63825455 61.9476,9.09559515 62.01845,8.56479273 C62.0891375,8.03382788 62.1452,7.5355103 62.1866375,7.06951515 C62.2279125,6.60352 62.24855,6.20525576 62.24855,5.87504727 C62.24855,4.67164606 62.1599875,3.78984485 61.983025,3.22948121 C61.8059,2.66911758 61.56995,2.38893576 61.27485,2.38893576 C61.1804375,2.38893576 61.097725,2.43620121 61.0270375,2.5305697 C60.9561875,2.62493818 60.8972,2.74578182 60.8499125,2.89326303 C60.8027875,3.04074424 60.7702875,3.20008242 60.752575,3.37111515 C60.7348625,3.54214788 60.725925,3.6984 60.725925,3.84003394 L60.725925,14.1742764 Z M65.877825,19.6422885 C65.948675,19.2883661 66.057875,19.0317358 66.2052625,18.8723976 C66.3528125,18.7132218 66.512225,18.6247006 66.6833375,18.6069964 C66.85445,18.5892921 67.02865,18.6305479 67.2056125,18.7309261 C67.382575,18.8311418 67.5361375,18.9638424 67.665975,19.1290279 C67.7958125,19.2942133 67.89315,19.4800267 67.9579875,19.6864679 C68.0229875,19.8929091 68.0317625,20.0964267 67.9846375,20.2970206 C67.819375,20.7805576 67.5832625,21.3469309 67.2764625,21.9956533 C66.9695,22.6445382 66.58015,23.2580145 66.107925,23.8360824 C65.6358625,24.4141503 65.0810875,24.903697 64.4437625,25.3048848 C63.8064375,25.7059103 63.0747,25.9065042 62.24855,25.9065042 C61.5522375,25.9065042 60.938475,25.7915079 60.4072625,25.5613527 C59.8762125,25.33136 59.4306375,25.0069988 59.0707,24.5881067 C58.7107625,24.169377 58.439225,23.6679733 58.25625,23.0840582 C58.0734375,22.4999806 57.98195,21.8483345 57.98195,21.1286327 L57.98195,4.6364 C57.98195,3.96396364 58.067425,3.34155394 58.2385375,2.76949576 C58.4098125,2.19727515 58.6457625,1.70772848 58.9467125,1.30069333 C59.2476625,0.893658182 59.598825,0.575144242 60.0002,0.345151515 C60.4014125,0.115158788 60.82635,0 61.27485,0 C61.8059,0 62.2544,0.0974545455 62.62035,0.292038788 C62.9861375,0.48662303 63.2870875,0.743253333 63.5232,1.06176727 C63.7593125,1.38028121 63.9452125,1.74606061 64.0809,2.15894303 C64.2165875,2.57182545 64.313925,2.99364121 64.3729125,3.42422788 C64.4320625,3.85481455 64.4674875,4.27939152 64.4791875,4.69828364 C64.49105,5.11701333 64.4969,5.49757333 64.4969,5.83963879 C64.4969,6.72436364 64.41435,7.6534303 64.2490875,8.62667636 C64.083825,9.59992242 63.8743625,10.5583879 63.6205375,11.5022352 C63.366875,12.44592 63.0894875,13.3514352 62.7885375,14.2184558 C62.4875875,15.0856388 62.1983375,15.8553673 61.92095,16.5278036 C61.6435625,17.20024 61.39575,17.7487467 61.1775125,18.1734861 C60.9591125,18.5982255 60.8086375,18.8459224 60.725925,18.9167394 L60.725925,21.0224073 C60.725925,21.7539661 60.8794875,22.3526618 61.1862875,22.818657 C61.4930875,23.2844897 61.983025,23.5175685 62.655775,23.5175685 C63.06885,23.5175685 63.455275,23.3907152 63.815375,23.1371709 C64.1753125,22.8834642 64.493975,22.5649503 64.7713625,22.1814667 C65.04875,21.7981455 65.281775,21.3792533 65.4706,20.9251152 C65.659425,20.470977 65.795275,20.0433139 65.877825,19.6422885 Z" id="Fill-6"></path>
                <path d="M68.7106875,14.1742764 C68.840525,13.9265794 68.9674375,13.5932848 69.0912625,13.1743927 C69.21525,12.755663 69.333225,12.2925915 69.44535,11.7853406 C69.557475,11.2780897 69.660825,10.7472873 69.7552375,10.1927709 C69.84965,9.63825455 69.9322,9.09559515 70.00305,8.56479273 C70.0739,8.03382788 70.1299625,7.5355103 70.1712375,7.06951515 C70.2125125,6.60352 70.2333125,6.20525576 70.2333125,5.87504727 C70.2333125,4.67164606 70.14475,3.78984485 69.967625,3.22948121 C69.7906625,2.66911758 69.55455,2.38893576 69.25945,2.38893576 C69.1650375,2.38893576 69.0824875,2.43620121 69.0116375,2.5305697 C68.9407875,2.62493818 68.8818,2.74578182 68.834675,2.89326303 C68.7873875,3.04074424 68.7548875,3.20008242 68.7373375,3.37111515 C68.719625,3.54214788 68.7106875,3.6984 68.7106875,3.84003394 L68.7106875,14.1742764 Z M73.8625875,19.6422885 C73.933275,19.2883661 74.042475,19.0317358 74.190025,18.8723976 C74.337575,18.7132218 74.4969875,18.6247006 74.6681,18.6069964 C74.8392125,18.5892921 75.01325,18.6305479 75.190375,18.7309261 C75.3673375,18.8311418 75.5207375,18.9638424 75.650575,19.1290279 C75.7804125,19.2942133 75.87775,19.4800267 75.94275,19.6864679 C76.0075875,19.8929091 76.016525,20.0964267 75.9692375,20.2970206 C75.8041375,20.7805576 75.568025,21.3469309 75.2610625,21.9956533 C74.9542625,22.6445382 74.56475,23.2580145 74.0926875,23.8360824 C73.620625,24.4141503 73.06585,24.903697 72.428525,25.3048848 C71.7912,25.7059103 71.0594625,25.9065042 70.2333125,25.9065042 C69.5368375,25.9065042 68.923075,25.7915079 68.392025,25.5613527 C67.860975,25.33136 67.4154,25.0069988 67.0554625,24.5881067 C66.6953625,24.169377 66.4239875,23.6679733 66.2410125,23.0840582 C66.0580375,22.4999806 65.96655,21.8483345 65.96655,21.1286327 L65.96655,4.6364 C65.96655,3.96396364 66.0521875,3.34155394 66.2233,2.76949576 C66.3944125,2.19727515 66.630525,1.70772848 66.931475,1.30069333 C67.232425,0.893658182 67.5835875,0.575144242 67.9848,0.345151515 C68.386175,0.115158788 68.81095,0 69.25945,0 C69.7906625,0 70.2391625,0.0974545455 70.60495,0.292038788 C70.9709,0.48662303 71.27185,0.743253333 71.5079625,1.06176727 C71.7439125,1.38028121 71.9298125,1.74606061 72.0656625,2.15894303 C72.20135,2.57182545 72.2986875,2.99364121 72.357675,3.42422788 C72.4166625,3.85481455 72.4520875,4.27939152 72.46395,4.69828364 C72.47565,5.11701333 72.4816625,5.49757333 72.4816625,5.83963879 C72.4816625,6.72436364 72.39895,7.6534303 72.23385,8.62667636 C72.0685875,9.59992242 71.859125,10.5583879 71.6053,11.5022352 C71.351475,12.44592 71.07425,13.3514352 70.7731375,14.2184558 C70.4721875,15.0856388 70.1831,15.8553673 69.9057125,16.5278036 C69.628325,17.20024 69.3805125,17.7487467 69.1621125,18.1734861 C68.943875,18.5982255 68.7934,18.8459224 68.7106875,18.9167394 L68.7106875,21.0224073 C68.7106875,21.7539661 68.8640875,22.3526618 69.17105,22.818657 C69.47785,23.2844897 69.967625,23.5175685 70.640375,23.5175685 C71.05345,23.5175685 71.4400375,23.3907152 71.799975,23.1371709 C72.160075,22.8834642 72.4787375,22.5649503 72.7559625,22.1814667 C73.03335,21.7981455 73.2665375,21.3792533 73.4553625,20.9251152 C73.6441875,20.470977 73.779875,20.0433139 73.8625875,19.6422885 Z" id="Fill-7"></path>
                <path d="M83.918575,25.9065042 C83.5055,25.9065042 83.130775,25.8415345 82.7944,25.7117576 C82.458025,25.5819806 82.162925,25.402177 81.9092625,25.1720218 C81.6554375,24.9420291 81.445975,24.6707806 81.2807125,24.3581139 C81.11545,24.0454473 81.003325,23.7063055 80.9443375,23.3405261 C80.5077,24.1073309 79.9942,24.7326642 79.4041625,25.2163636 C78.8139625,25.700063 78.11765,25.9419127 77.3150625,25.9419127 C76.7131625,25.9419127 76.173175,25.817983 75.6951,25.5702861 C75.2171875,25.3225891 74.8128875,24.9715903 74.4823625,24.5172897 C74.152,24.0631515 73.9011,23.5146448 73.7299875,22.8716073 C73.558875,22.2287321 73.4732375,21.5121164 73.4732375,20.7215976 C73.4732375,19.7660558 73.5411625,18.8046667 73.67685,17.8372679 C73.8127,16.8698691 73.963175,15.9968388 74.128275,15.2183394 C74.3172625,14.3099006 74.5355,13.431023 74.783475,12.5817067 C74.8424625,12.4282158 74.8866625,12.2719636 74.9162375,12.1127879 C74.94565,11.9534497 75.013575,11.8088921 75.11985,11.6791152 C75.2259625,11.5493382 75.39415,11.4432752 75.6244125,11.3606012 C75.8545125,11.2780897 76.211525,11.2368339 76.69545,11.2368339 C77.14395,11.2368339 77.4330375,11.3164218 77.562875,11.47576 C77.6927125,11.6349358 77.742925,11.8207491 77.71335,12.0330376 C77.6839375,12.2454885 77.6130875,12.4636242 77.5009625,12.6877697 C77.3888375,12.9119152 77.3150625,13.0948048 77.2796375,13.2364388 C77.114375,13.9088752 76.966825,14.5223515 76.8369875,15.0767055 C76.70715,15.6312218 76.5981125,16.1886618 76.50955,16.7490255 C76.4209875,17.3093891 76.3530625,17.8933042 76.3059375,18.5007709 C76.25865,19.1084 76.2350875,19.7896073 76.2350875,20.5447176 C76.2350875,21.5356679 76.3797125,22.2847685 76.6688,22.7920194 C76.95805,23.2992703 77.3682,23.552977 77.89925,23.552977 C78.2652,23.552977 78.6045,23.4173527 78.9173125,23.1459418 C79.2299625,22.8746933 79.5133625,22.5118376 79.767025,22.0576994 C80.02085,21.6033988 80.242175,21.0844533 80.431,20.5003758 C80.619825,19.9164606 80.767375,19.3060703 80.8734875,18.66888 L80.8734875,12.8294036 C80.8734875,12.5698497 80.85285,12.3634085 80.811575,12.21008 C80.7703,12.0567515 80.729025,11.9357455 80.6875875,11.8472242 C80.6463125,11.7588655 80.6050375,11.6880485 80.5637625,11.6349358 C80.5224875,11.581823 80.5016875,11.5199394 80.5016875,11.4491224 C80.5016875,11.3901624 80.5371125,11.3370497 80.6079625,11.2899467 C80.6788125,11.2426812 80.773225,11.2014255 80.8912,11.166017 C81.0093375,11.1306085 81.1360875,11.1041333 81.2719375,11.0864291 C81.407625,11.0687248 81.5403875,11.0597915 81.670225,11.0597915 C82.272125,11.0597915 82.747275,11.2162061 83.09535,11.5287103 C83.4435875,11.841377 83.617625,12.2159273 83.617625,12.6523612 L83.617625,21.8541818 C83.617625,21.9366933 83.623475,22.0693939 83.6353375,22.2522836 C83.6472,22.4351733 83.682625,22.6209867 83.7416125,22.8097236 C83.8006,22.9984606 83.8950125,23.1636461 84.02485,23.30528 C84.1546875,23.4467515 84.3376625,23.5175685 84.5736125,23.5175685 C84.9395625,23.5175685 85.2553,23.3877915 85.520825,23.1282376 C85.78635,22.8686836 86.01645,22.5443224 86.2112875,22.1549915 C86.4059625,21.7656606 86.565375,21.3440073 86.6892,20.8897067 C86.8131875,20.4355685 86.9165375,20.0079055 86.9990875,19.60688 C87.0699375,19.2292436 87.1879125,18.9550715 87.353175,18.7840388 C87.5184375,18.6128436 87.68955,18.5274085 87.8665125,18.5274085 C88.0082125,18.5274085 88.1557625,18.5715879 88.3091625,18.6601091 C88.4625625,18.7486303 88.6013375,18.8636267 88.7251625,19.0050982 C88.84915,19.1467321 88.9494125,19.3060703 89.0261125,19.4829503 C89.1028125,19.6598303 89.141325,19.8368727 89.141325,20.0137527 L89.141325,20.1022739 C89.141325,20.1376824 89.1294625,20.1907952 89.1059,20.2616121 C88.9406375,20.8632315 88.7251625,21.4944121 88.4596375,22.1549915 C88.1941125,22.8155709 87.8548125,23.4232 87.4417375,23.9777164 C87.0286625,24.5320703 86.532875,24.9922182 85.9545375,25.3578352 C85.3762,25.7236145 84.6976,25.9065042 83.918575,25.9065042 Z" id="Fill-8"></path>
                <path d="M89.194625,19.9253939 C89.1002125,20.3028679 88.9230875,20.5357842 88.663575,20.6243055 C88.4039,20.7128267 88.14715,20.7038933 87.893325,20.5978303 C87.6396625,20.4916048 87.4271125,20.3087152 87.256,20.0491612 C87.0848875,19.7896073 87.034675,19.5065018 87.105525,19.1998448 C87.28265,18.3976315 87.5392375,17.5098206 87.8756125,16.5365745 C88.2119875,15.5633285 88.5454375,14.5930061 88.8759625,13.6257697 C88.6988375,13.3543588 88.5573,13.0800242 88.451025,12.8029285 C88.3449125,12.5256703 88.291775,12.2336315 88.291775,11.9269745 C88.291775,11.6201552 88.406825,11.2987176 88.636925,10.9624994 C88.867025,10.6262812 89.1444125,10.3165382 89.4690875,10.0334327 C89.7936,9.75032727 90.129975,9.51741091 90.4782125,9.33452121 C90.8262875,9.15163152 91.1243125,9.06018667 91.372125,9.06018667 C91.808925,9.06018667 92.1363625,9.20766788 92.3547625,9.5026303 C92.5731625,9.79759273 92.6823625,10.1927709 92.6823625,10.6881648 C92.6823625,10.9595758 92.638,11.2279006 92.5494375,11.4933018 C92.4610375,11.7588655 92.3635375,12.0065624 92.257425,12.2365552 C92.15115,12.4667103 92.0538125,12.6642182 91.96525,12.8294036 C91.8766875,12.9945891 91.8266375,13.1006521 91.814775,13.1479176 C92.2397125,13.9028655 92.6823625,14.5694545 93.1425625,15.1475224 C93.602925,15.7255903 94.024775,16.2978109 94.4084375,16.8640218 C94.7919375,17.4302327 95.107675,18.0318521 95.35565,18.66888 C95.6034625,19.3060703 95.7272875,20.0551709 95.7272875,20.9163442 C95.7272875,21.1286327 95.7126625,21.3469309 95.6830875,21.5710764 C95.6535125,21.7952218 95.6093125,22.0075103 95.550325,22.2081042 C95.9752625,22.1254303 96.3499875,21.9956533 96.6745,21.8187733 C96.9990125,21.6418933 97.2824125,21.4383758 97.524375,21.2082206 C97.766175,20.9782279 97.9668625,20.7276073 98.126275,20.4561964 C98.285525,20.1849479 98.4182875,19.90168 98.5245625,19.60688 C98.6544,19.2646521 98.7842375,19.0169552 98.914075,18.8636267 C99.0439125,18.7102982 99.1914625,18.6336339 99.356725,18.6336339 C99.510125,18.6336339 99.66645,18.6836606 99.8258625,18.7840388 C99.9851125,18.8842545 100.126813,19.0111079 100.250638,19.1644364 C100.374625,19.3177648 100.474888,19.477103 100.551588,19.6422885 C100.62845,19.8073115 100.6668,19.9547927 100.6668,20.0845697 C100.6668,20.2616121 100.619513,20.4739006 100.5251,20.7215976 C100.430688,20.969457 100.303775,21.2230012 100.144525,21.4825552 C99.9851125,21.7421091 99.805225,21.9927297 99.6045375,22.2345794 C99.40385,22.4764291 99.1973125,22.6857939 98.984925,22.8628364 C98.4182875,23.3228218 97.75155,23.7092291 96.9843875,24.0218958 C96.217225,24.3345624 95.2670875,24.5320703 94.133975,24.6147442 C93.6973375,24.9922182 93.1809125,25.3017988 92.5848625,25.5436485 C91.9888125,25.7854982 91.31915,25.9065042 90.57555,25.9065042 C90.1979,25.9065042 89.8113125,25.8592388 89.41595,25.7648703 C89.0205875,25.6705018 88.642775,25.5496582 88.2828375,25.402177 C87.9229,25.2546958 87.5953,25.0924339 87.3003625,24.9155539 C87.0052625,24.7385115 86.76915,24.5616315 86.5921875,24.3845891 C86.1436875,23.9600121 85.8544375,23.5323491 85.7246,23.1017624 C85.5947625,22.6711758 85.562425,22.2847685 85.6272625,21.942703 C85.6922625,21.6004752 85.8190125,21.3202933 86.008,21.1021576 C86.196825,20.8838594 86.3915,20.7747103 86.5921875,20.7747103 C86.7101625,20.7747103 86.8960625,20.8248994 87.1498875,20.9251152 C87.40355,21.0254933 87.695725,21.1551079 88.0260875,21.3144461 C88.3566125,21.4737842 88.71655,21.6418933 89.1060625,21.8187733 C89.495575,21.9956533 89.8850875,22.1637624 90.2746,22.3231006 C90.6641125,22.4824388 91.0446875,22.6120533 91.4164875,22.7124315 C91.7882875,22.8126473 92.1275875,22.8628364 92.4343875,22.8628364 C92.635075,22.6268339 92.81805,22.3143297 92.9833125,21.9249988 C93.1484125,21.5356679 93.231125,21.1109285 93.231125,20.650943 C93.231125,20.0845697 93.154425,19.5596145 93.001025,19.0759152 C92.8474625,18.5922158 92.6469375,18.1439248 92.3989625,17.7310424 C92.15115,17.31816 91.8708375,16.9317527 91.558025,16.571983 C91.245375,16.2122133 90.9296375,15.8730715 90.610975,15.5545576 C90.3277375,16.2505455 90.0797625,16.9377624 89.867375,17.6160461 C89.6549875,18.2943297 89.4307375,19.0642206 89.194625,19.9253939 Z" id="Fill-9"></path>
                <path d="M95.4266625,7.85694788 C95.6980375,7.88049939 95.99915,7.89820364 96.3295125,7.91006061 C96.61275,7.93361212 96.9551375,7.94839273 97.35635,7.95424 C97.757725,7.96008727 98.206225,7.96902061 98.70185,7.98071515 L98.70185,1.84042909 C98.70185,1.58087515 98.6812125,1.37443394 98.6399375,1.22110545 C98.5986625,1.06777697 98.557225,0.946770909 98.51595,0.858249697 C98.474675,0.769890909 98.4334,0.699073939 98.392125,0.645961212 C98.3506875,0.592848485 98.33005,0.536812121 98.33005,0.477852121 C98.33005,0.407035152 98.365475,0.348075152 98.436325,0.300972121 C98.507175,0.253706667 98.6015875,0.212450909 98.7195625,0.177042424 C98.8375375,0.141633939 98.96445,0.115158788 99.1001375,0.0974545455 C99.2359875,0.079750303 99.36875,0.0708169697 99.4985875,0.0708169697 C100.100488,0.0708169697 100.575475,0.227231515 100.923713,0.539735758 C101.27195,0.852402424 101.445988,1.22695273 101.445988,1.66338667 L101.445988,8.01612364 C102.555375,8.01612364 103.726838,8.00442909 104.960213,7.98071515 C106.193588,7.95716364 107.429888,7.91590788 108.669113,7.85694788 C108.834375,7.67990545 108.967138,7.61509818 109.067563,7.66220121 C109.167825,7.70946667 109.232663,7.82153939 109.262238,7.99841939 C109.291813,8.17546182 109.294738,8.39376 109.271013,8.65315152 C109.24745,8.91270545 109.200325,9.16348848 109.129475,9.40533818 C109.058625,9.64718788 108.961288,9.85655273 108.8373,10.0334327 C108.713475,10.2104752 108.5747,10.2989964 108.4213,10.2989964 C106.969525,10.3342424 105.6861,10.3550327 104.5707,10.36088 C103.4553,10.3667273 102.413838,10.3696509 101.445988,10.3696509 L101.445988,21.8541818 C101.445988,22.4439442 101.558113,22.8686836 101.782363,23.1282376 C102.006613,23.3877915 102.307563,23.5175685 102.685213,23.5175685 C103.051163,23.5175685 103.3669,23.3877915 103.632425,23.1282376 C103.89795,22.8686836 104.12805,22.5443224 104.322888,22.1549915 C104.517563,21.7656606 104.676975,21.3440073 104.8008,20.8897067 C104.924788,20.4355685 105.027975,20.0079055 105.110688,19.60688 C105.181538,19.2292436 105.299513,18.9550715 105.464775,18.7840388 C105.630038,18.6128436 105.80115,18.5274085 105.978113,18.5274085 C106.119813,18.5274085 106.267363,18.5715879 106.420763,18.6601091 C106.574163,18.7486303 106.712938,18.8636267 106.836763,19.0050982 C106.96075,19.1467321 107.061013,19.3060703 107.137713,19.4829503 C107.214413,19.6598303 107.252763,19.8368727 107.252763,20.0137527 L107.252763,20.1022739 C107.252763,20.1376824 107.241063,20.1907952 107.2175,20.2616121 C107.063938,20.8632315 106.854475,21.4944121 106.58895,22.1549915 C106.323425,22.8155709 105.981038,23.4232 105.562113,23.9777164 C105.143188,24.5320703 104.644475,24.9922182 104.066138,25.3578352 C103.4878,25.7236145 102.8092,25.9065042 102.030175,25.9065042 C101.54625,25.9065042 101.100675,25.8327636 100.693613,25.6852824 C100.286388,25.5378012 99.935225,25.3017988 99.640125,24.9774376 C99.3451875,24.6530764 99.114925,24.2371079 98.9496625,23.729857 C98.7845625,23.2226061 98.70185,22.6091297 98.70185,21.8895903 L98.70185,10.3696509 C98.3006375,10.3696509 97.943625,10.3667273 97.6308125,10.36088 C97.318,10.3550327 97.0554,10.3460994 96.8430125,10.3342424 C96.5950375,10.3225479 96.3768,10.3106909 96.187975,10.2989964 C95.904575,10.2989964 95.6538375,10.172143 95.4354375,9.91843636 C95.2172,9.66489212 95.0638,9.3847103 94.9752375,9.07789091 C94.886675,8.77123394 94.8748125,8.49105212 94.9398125,8.23734545 C95.00465,7.98380121 95.1669875,7.85694788 95.4266625,7.85694788 Z" id="Fill-10"></path>
                <path d="M113.166138,25.9065042 C112.741362,25.9065042 112.307488,25.8415345 111.865,25.7117576 C111.42235,25.5819806 111.021137,25.3578352 110.661038,25.0393212 C110.3011,24.7208073 110.006,24.2991539 109.7759,23.7741988 C109.5458,23.2492436 109.43075,22.5855782 109.43075,21.7833648 C109.43075,20.6155345 109.587075,19.3796485 109.899888,18.0761939 C110.212537,16.772577 110.664125,15.3362594 111.254163,13.7672412 L108.492312,13.7672412 L108.08525,13.7672412 C108.073388,14.1211636 108.05275,14.5694545 108.023175,15.1121139 C107.993763,15.6547733 107.94355,16.2328412 107.8727,16.8463176 C107.80185,17.4597939 107.710525,18.0791176 107.5984,18.7042885 C107.486275,19.3296218 107.3475,19.9076897 107.182238,20.4384921 C107.064262,20.8159661 106.878362,21.0342642 106.624537,21.0932242 C106.370875,21.1521842 106.119975,21.1080048 105.872163,20.9605236 C105.62435,20.8130424 105.423663,20.5978303 105.270263,20.3147248 C105.116863,20.031457 105.081438,19.736657 105.163988,19.4298376 C105.2584,19.0642206 105.341112,18.6188533 105.411962,18.0938982 C105.48265,17.568943 105.538712,17.0144267 105.58015,16.4305115 C105.621425,15.8464339 105.653925,15.2625188 105.677487,14.6786036 C105.70105,14.0946885 105.718762,13.572657 105.730625,13.1125091 C105.282125,12.8648121 104.910325,12.5492218 104.615225,12.1657382 C104.320125,11.782417 104.172575,11.3251927 104.172575,10.7943903 C104.172575,10.5466933 104.222787,10.3196242 104.32305,10.113183 C104.423475,9.90674182 104.556238,9.72969939 104.7215,9.58221818 C104.886762,9.43473697 105.081438,9.32266424 105.305687,9.246 C105.529938,9.16933576 105.760037,9.13100364 105.99615,9.13100364 C106.208537,9.13100364 106.429862,9.16056485 106.659962,9.21952485 C106.890225,9.27848485 107.108463,9.3847103 107.315,9.53803879 C107.521538,9.69136727 107.707438,9.89196121 107.8727,10.1396582 C108.037962,10.3873552 108.17365,10.6941745 108.279925,11.0597915 C108.575025,11.0952 108.825762,11.1218376 109.0323,11.1395418 C109.238838,11.1570836 109.413038,11.1718642 109.554575,11.1837212 C109.696275,11.1955782 109.81425,11.2014255 109.908662,11.2014255 L112.086325,11.2014255 C112.192437,11.2014255 112.348925,11.2662327 112.555462,11.3960097 C112.762,11.5257867 112.965613,11.6938958 113.166138,11.900337 C113.366825,12.1067782 113.535012,12.328 113.6707,12.5640024 C113.80655,12.7998424 113.8566,13.0239879 113.821175,13.2364388 C113.821175,13.3072558 113.7799,13.4782885 113.69735,13.749537 C113.614638,14.0209479 113.514375,14.3630133 113.3964,14.7758958 C113.278262,15.1887782 113.148425,15.6637067 113.006887,16.2003564 C112.865188,16.7371685 112.73535,17.3004558 112.617375,17.8903806 C112.4994,18.480143 112.398975,19.0906958 112.316425,19.7218764 C112.233875,20.353057 112.192437,20.969457 112.192437,21.5710764 C112.192437,21.8187733 112.222013,22.060623 112.281,22.2966255 C112.339988,22.5324655 112.42855,22.7418303 112.546525,22.92472 C112.664662,23.1076097 112.815138,23.2521673 112.99795,23.3582303 C113.180925,23.4644558 113.3964,23.5175685 113.644212,23.5175685 C114.057287,23.5175685 114.411375,23.3877915 114.706475,23.1282376 C115.001575,22.8686836 115.249388,22.5443224 115.450075,22.1549915 C115.6506,21.7656606 115.812938,21.3440073 115.936925,20.8897067 C116.06075,20.4355685 116.1641,20.0079055 116.24665,19.60688 C116.3175,19.2292436 116.435475,18.9550715 116.600738,18.7840388 C116.766,18.6128436 116.937113,18.5274085 117.114238,18.5274085 C117.255775,18.5274085 117.403325,18.5715879 117.556725,18.6601091 C117.710125,18.7486303 117.8489,18.8636267 117.972725,19.0050982 C118.096713,19.1467321 118.196975,19.3060703 118.273838,19.4829503 C118.350538,19.6598303 118.388888,19.8368727 118.388888,20.0137527 C118.388888,20.0728752 118.382875,20.1199782 118.371175,20.1553867 C118.359313,20.1907952 118.353463,20.2262036 118.353463,20.2616121 C118.1882,20.8632315 117.972725,21.4944121 117.7072,22.1549915 C117.441675,22.8155709 117.102375,23.4232 116.6893,23.9777164 C116.276225,24.5320703 115.780437,24.9922182 115.2021,25.3578352 C114.623762,25.7236145 113.945163,25.9065042 113.166138,25.9065042 Z" id="Fill-11"></path>
                <path d="M126.656887,23.5175685 C127.022675,23.5175685 127.338412,23.3877915 127.603938,23.1282376 C127.869462,22.8686836 128.099725,22.5443224 128.2944,22.1549915 C128.489238,21.7656606 128.648487,21.3440073 128.772475,20.8897067 C128.8963,20.4355685 128.99965,20.0079055 129.0822,19.60688 C129.164913,19.2292436 129.285812,18.9550715 129.445225,18.7840388 C129.604475,18.6128436 129.778675,18.5274085 129.9675,18.5274085 C130.109037,18.5274085 130.253663,18.5715879 130.401213,18.6601091 C130.548762,18.7486303 130.68445,18.8636267 130.808437,19.0050982 C130.932262,19.1467321 131.032688,19.3060703 131.109387,19.4829503 C131.186087,19.6598303 131.224437,19.8368727 131.224437,20.0137527 L131.224437,20.1022739 C131.224437,20.1376824 131.212575,20.1907952 131.189012,20.2616121 C131.035613,20.8632315 130.82615,21.4944121 130.560462,22.1549915 C130.294938,22.8155709 129.955637,23.4232 129.542563,23.9777164 C129.129488,24.5320703 128.630775,24.9922182 128.046587,25.3578352 C127.4624,25.7236145 126.780712,25.9065042 126.00185,25.9065042 C125.364362,25.9065042 124.80975,25.7707176 124.337687,25.4994691 C123.865462,25.2280582 123.493662,24.8682885 123.222287,24.4199976 C122.856338,24.83288 122.416775,25.1838788 121.903275,25.4729939 C121.389938,25.7619467 120.790963,25.9065042 120.10635,25.9065042 C119.398175,25.9065042 118.775638,25.7648703 118.238575,25.4817648 C117.701675,25.1986594 117.250088,24.8122521 116.8843,24.3227055 C116.51835,23.8331588 116.24405,23.2550909 116.061075,22.5885018 C115.8781,21.9220752 115.786613,21.205297 115.786613,20.4384921 C115.786613,18.9284339 116.028575,17.5718667 116.5125,16.3684655 C116.996425,15.1652267 117.6396,14.1417915 118.442187,13.2983224 C119.244775,12.4548533 120.162412,11.8088921 121.1951,11.3606012 C122.22795,10.9123103 123.298987,10.6881648 124.408375,10.6881648 C124.904162,10.6881648 125.305375,10.8239515 125.612337,11.0952 C125.919138,11.3666109 126.072537,11.7382376 126.072537,12.21008 C126.072537,12.516737 126.0402,12.7321115 125.9752,12.8558788 C125.910362,12.9798085 125.7893,13.0416921 125.612337,13.0416921 C125.447075,13.0416921 125.275962,13.0299976 125.098838,13.0062836 C124.921875,12.9827321 124.7389,12.9710376 124.550075,12.9710376 C123.865462,12.9710376 123.16915,13.1214424 122.460975,13.4222521 C121.7528,13.7230618 121.11255,14.1830473 120.540062,14.8025333 C119.967737,15.421857 119.4986,16.2063661 119.13265,17.1558982 C118.766862,18.1055927 118.583887,19.2352533 118.583887,20.5447176 C118.583887,21.5002594 118.766862,22.2345794 119.13265,22.74784 C119.4986,23.2609382 120.000237,23.5175685 120.637562,23.5175685 C121.133188,23.5175685 121.546262,23.3317552 121.876788,22.9601285 C122.207313,22.5885018 122.472837,22.1491442 122.673525,21.6418933 L122.673525,16.0499515 C122.673525,15.8730715 122.664587,15.7255903 122.646875,15.6076703 C122.629162,15.4895879 122.61145,15.3893721 122.593737,15.3068606 C122.576025,15.2241867 122.5614,15.1504461 122.549537,15.0856388 C122.537675,15.0206691 122.531825,14.9587855 122.531825,14.8998255 C122.531825,14.7110885 122.623313,14.5606836 122.806287,14.4486109 C122.9891,14.3365382 123.210425,14.2805018 123.4701,14.2805018 C124.072,14.2805018 124.550075,14.4367539 124.904162,14.7494206 C125.25825,15.0619248 125.435212,15.4364752 125.435212,15.8730715 L125.435212,21.8541818 C125.435212,22.0547758 125.458937,22.2522836 125.506062,22.4470303 C125.55335,22.6416145 125.624038,22.818657 125.71845,22.9778327 C125.812862,23.1371709 125.939775,23.2667855 126.099187,23.3671636 C126.258437,23.4673794 126.444338,23.5175685 126.656887,23.5175685 Z" id="Fill-12"></path>
                <path d="M125.966588,7.85694788 C126.238125,7.88049939 126.539075,7.89820364 126.8696,7.91006061 C127.152838,7.93361212 127.495063,7.94839273 127.896275,7.95424 C128.29765,7.96008727 128.74615,7.96902061 129.241775,7.98071515 L129.241775,1.84042909 C129.241775,1.58087515 129.221138,1.37443394 129.179863,1.22110545 C129.138588,1.06777697 129.097313,0.946770909 129.056038,0.858249697 C129.0146,0.769890909 128.973325,0.699073939 128.93205,0.645961212 C128.890775,0.592848485 128.870138,0.536812121 128.870138,0.477852121 C128.870138,0.407035152 128.9054,0.348075152 128.97625,0.300972121 C129.0471,0.253706667 129.141513,0.212450909 129.259488,0.177042424 C129.377625,0.141633939 129.504538,0.115158788 129.640225,0.0974545455 C129.775913,0.079750303 129.908675,0.0708169697 130.038513,0.0708169697 C130.640413,0.0708169697 131.115563,0.227231515 131.463638,0.539735758 C131.811875,0.852402424 131.985913,1.22695273 131.985913,1.66338667 L131.985913,8.01612364 C133.095463,8.01612364 134.266763,8.00442909 135.500138,7.98071515 C136.733513,7.95716364 137.969813,7.91590788 139.2092,7.85694788 C139.3743,7.67990545 139.507225,7.61509818 139.607488,7.66220121 C139.70775,7.70946667 139.77275,7.82153939 139.802163,7.99841939 C139.831738,8.17546182 139.834663,8.39376 139.8111,8.65315152 C139.787538,8.91270545 139.74025,9.16348848 139.6694,9.40533818 C139.59855,9.64718788 139.501213,9.85655273 139.377388,10.0334327 C139.2534,10.2104752 139.114788,10.2989964 138.961225,10.2989964 C137.509613,10.3342424 136.226025,10.3550327 135.110625,10.36088 C133.995388,10.3667273 132.953763,10.3696509 131.985913,10.3696509 L131.985913,21.8541818 C131.985913,22.4439442 132.098038,22.8686836 132.322288,23.1282376 C132.546538,23.3877915 132.847488,23.5175685 133.2253,23.5175685 C133.591088,23.5175685 133.906825,23.3877915 134.17235,23.1282376 C134.437875,22.8686836 134.668138,22.5443224 134.862813,22.1549915 C135.05765,21.7656606 135.2169,21.3440073 135.340888,20.8897067 C135.464713,20.4355685 135.568063,20.0079055 135.650613,19.60688 C135.721463,19.2292436 135.839438,18.9550715 136.0047,18.7840388 C136.169963,18.6128436 136.341075,18.5274085 136.5182,18.5274085 C136.659738,18.5274085 136.807288,18.5715879 136.960688,18.6601091 C137.11425,18.7486303 137.252863,18.8636267 137.37685,19.0050982 C137.500675,19.1467321 137.6011,19.3060703 137.6778,19.4829503 C137.7545,19.6598303 137.79285,19.8368727 137.79285,20.0137527 L137.79285,20.1022739 C137.79285,20.1376824 137.780988,20.1907952 137.757425,20.2616121 C137.604025,20.8632315 137.394563,21.4944121 137.128875,22.1549915 C136.86335,22.8155709 136.521125,23.4232 136.102038,23.9777164 C135.683113,24.5320703 135.1844,24.9922182 134.606063,25.3578352 C134.027725,25.7236145 133.349125,25.9065042 132.5701,25.9065042 C132.086338,25.9065042 131.640763,25.8327636 131.233538,25.6852824 C130.826313,25.5378012 130.47515,25.3017988 130.180213,24.9774376 C129.885113,24.6530764 129.655013,24.2371079 129.48975,23.729857 C129.324488,23.2226061 129.241775,22.6091297 129.241775,21.8895903 L129.241775,10.3696509 C128.840563,10.3696509 128.48355,10.3667273 128.170738,10.36088 C127.857925,10.3550327 127.595325,10.3460994 127.382938,10.3342424 C127.135125,10.3225479 126.916725,10.3106909 126.7279,10.2989964 C126.444663,10.2989964 126.193763,10.172143 125.975525,9.91843636 C125.757125,9.66489212 125.603725,9.3847103 125.515163,9.07789091 C125.4266,8.77123394 125.4149,8.49105212 125.479738,8.23734545 C125.544738,7.98380121 125.706913,7.85694788 125.966588,7.85694788 Z" id="Fill-13"></path>
                <path d="M137.722325,7.46761697 C137.427225,7.46761697 137.146912,7.40865697 136.881387,7.29073697 C136.6157,7.17265455 136.3856,7.01347879 136.190925,6.81288485 C135.996087,6.61229091 135.839762,6.37937455 135.721787,6.11397333 C135.60365,5.8484097 135.544662,5.56238061 135.544662,5.25572364 C135.544662,4.9372097 135.60365,4.64224727 135.721787,4.37083636 C135.839762,4.09958788 135.996087,3.86650909 136.190925,3.67192485 C136.3856,3.47717818 136.6157,3.3238497 136.881387,3.21177697 C137.146912,3.09970424 137.427225,3.04366788 137.722325,3.04366788 C138.040987,3.04366788 138.335925,3.09970424 138.607462,3.21177697 C138.879,3.3238497 139.112025,3.47717818 139.3067,3.67192485 C139.501537,3.86650909 139.654937,4.09958788 139.767063,4.37083636 C139.879188,4.64224727 139.93525,4.9372097 139.93525,5.25572364 C139.93525,5.56238061 139.879188,5.8484097 139.767063,6.11397333 C139.654937,6.37937455 139.501537,6.61229091 139.3067,6.81288485 C139.112025,7.01347879 138.879,7.17265455 138.607462,7.29073697 C138.335925,7.40865697 138.040987,7.46761697 137.722325,7.46761697 Z M138.554325,21.8541818 C138.554325,21.9366933 138.560175,22.0693939 138.572037,22.2522836 C138.5839,22.4351733 138.619325,22.6209867 138.678313,22.8097236 C138.7373,22.9984606 138.831712,23.1636461 138.96155,23.30528 C139.091387,23.4467515 139.274362,23.5175685 139.510312,23.5175685 C139.8644,23.5175685 140.174287,23.3877915 140.439813,23.1282376 C140.705337,22.8686836 140.9356,22.5443224 141.130275,22.1549915 C141.32495,21.7656606 141.487288,21.3440073 141.617125,20.8897067 C141.746962,20.4355685 141.853238,20.0079055 141.935788,19.60688 C142.006637,19.2411006 142.115837,18.9756994 142.263387,18.8105139 C142.410775,18.6453285 142.570188,18.5538836 142.7413,18.5361794 C142.912412,18.5184752 143.083525,18.562817 143.2548,18.66888 C143.425913,18.7751055 143.579313,18.9138158 143.715,19.0848485 C143.850687,19.2558812 143.951112,19.4475418 144.01595,19.6598303 C144.08095,19.8722812 144.089725,20.0728752 144.0426,20.2616121 C143.877338,20.8632315 143.661863,21.4944121 143.396338,22.1549915 C143.130812,22.8155709 142.791513,23.4232 142.378438,23.9777164 C141.965362,24.5320703 141.469575,24.9922182 140.891237,25.3578352 C140.3129,25.7236145 139.6343,25.9065042 138.855275,25.9065042 C138.37135,25.9065042 137.940562,25.8150594 137.562912,25.6321697 C137.185262,25.44928 136.8666,25.2045067 136.606925,24.8978497 C136.34725,24.5910303 136.14965,24.2312606 136.0138,23.8183782 C135.878112,23.4054958 135.810187,22.9690618 135.810187,22.5089139 L135.810187,12.8294036 C135.810187,12.4873382 135.7837,12.2394788 135.730562,12.0861503 C135.677425,11.9328218 135.650937,11.7911879 135.650937,11.6614109 C135.650937,11.4845309 135.74535,11.3399733 135.934175,11.2279006 C136.123,11.1158279 136.34725,11.0597915 136.606925,11.0597915 C137.208825,11.0597915 137.683975,11.2162061 138.03205,11.5287103 C138.380287,11.841377 138.554325,12.2159273 138.554325,12.6523612 L138.554325,21.8541818 Z" id="Fill-14"></path>
                <path d="M155.337975,18.9167394 C155.361538,18.7751055 155.441163,18.6571855 155.57685,18.562817 C155.7127,18.4684485 155.869025,18.4034788 156.045988,18.3680703 C156.223113,18.3326618 156.409013,18.3326618 156.603688,18.3680703 C156.798525,18.4034788 156.969638,18.4832291 157.117188,18.6069964 C157.264738,18.7309261 157.37085,18.9019588 157.43585,19.120257 C157.500688,19.3383927 157.491913,19.6185745 157.4092,19.9608024 C157.303088,20.4561964 157.128888,20.9192679 156.886925,21.3498545 C156.644963,21.7804412 156.341088,22.1608388 155.9753,22.4912097 C155.60935,22.8215806 155.178563,23.0811345 154.682775,23.2698715 C154.18715,23.4586085 153.632375,23.552977 153.018613,23.552977 C152.68825,23.552977 152.378363,23.5352727 152.089275,23.4998642 C151.800025,23.4644558 151.519713,23.3996485 151.248338,23.30528 C150.799838,24.0837794 150.2215,24.7120364 149.513325,25.1897261 C148.80515,25.6675782 147.931713,25.9065042 146.893175,25.9065042 C145.972613,25.9065042 145.181725,25.7265382 144.520837,25.3667685 C143.85995,25.0069988 143.311025,24.5172897 142.874388,23.8979661 C142.437588,23.2786424 142.116,22.5620267 141.909463,21.7479564 C141.702925,20.9340485 141.599738,20.0728752 141.599738,19.1644364 C141.599738,17.8314206 141.756063,16.6369527 142.068875,15.5810327 C142.381525,14.5252752 142.74455,13.6286933 143.157625,12.8912873 C143.5707,12.1540436 143.98085,11.5907564 144.388075,11.2014255 C144.7953,10.8120945 145.099175,10.6175103 145.299863,10.6175103 C145.535813,10.6175103 145.751288,10.7206497 145.945963,10.9270909 C146.1408,11.1335321 146.282338,11.3753818 146.3709,11.65264 C146.459463,11.9298982 146.483025,12.21008 146.44175,12.4931855 C146.400313,12.7762909 146.2617,12.9945891 146.025588,13.1479176 C145.88405,13.372063 145.715863,13.631617 145.521025,13.9265794 C145.32635,14.2213794 145.143375,14.5900824 144.972262,15.0325261 C144.80115,15.4749697 144.656525,16.014543 144.53855,16.6515709 C144.420575,17.2887612 144.361425,18.0555661 144.361425,18.9521479 C144.361425,19.7189527 144.42935,20.3853794 144.565037,20.9517527 C144.700888,21.5179636 144.889713,21.9927297 145.131675,22.3762133 C145.373638,22.7595345 145.650863,23.0457261 145.963675,23.234463 C146.276488,23.4232 146.609938,23.5175685 146.964025,23.5175685 C147.483213,23.5175685 147.911075,23.3907152 148.24745,23.1371709 C148.583825,22.8834642 148.87015,22.5501697 149.1061,22.1372873 C148.256388,21.4058909 147.610125,20.4768242 147.167475,19.3502497 C146.724987,18.2236752 146.503663,17.0054933 146.503663,15.6960291 C146.503663,15.1298182 146.565575,14.5900824 146.689562,14.0769842 C146.81355,13.5637236 146.996363,13.1125091 147.238325,12.7231782 C147.480288,12.3338473 147.784163,12.0242667 148.150113,11.7942739 C148.516063,11.5641188 148.940838,11.4491224 149.424763,11.4491224 C149.8497,11.4491224 150.250913,11.6024509 150.628725,11.9092703 C151.006375,12.2159273 151.336738,12.6406667 151.620138,13.1833261 C151.903375,13.7259855 152.1247,14.3688606 152.28395,15.1121139 C152.443363,15.8553673 152.522988,16.6634279 152.522988,17.5364582 C152.522988,18.2088945 152.481713,18.8753212 152.399,19.536063 C152.31645,20.1966424 152.186613,20.8336703 152.009488,21.4471467 C152.139325,21.4944121 152.260388,21.5208873 152.372513,21.5267345 C152.484638,21.5327442 152.605538,21.5356679 152.735375,21.5356679 C153.124888,21.5356679 153.4702,21.4648509 153.77115,21.323217 C154.0721,21.1817455 154.32885,20.9930085 154.541238,20.7570061 C154.753625,20.5211661 154.924738,20.2439079 155.054575,19.9253939 C155.184413,19.60688 155.278825,19.2706618 155.337975,18.9167394 Z M148.415638,15.5545576 C148.415638,16.3684655 148.54255,17.14128 148.796375,17.8726764 C149.050038,18.6040727 149.383488,19.2411006 149.796563,19.78376 C149.867413,19.2056921 149.902838,18.6513382 149.902838,18.1203733 C149.902838,17.506897 149.8939,16.9377624 149.876188,16.4128073 C149.858475,15.8878521 149.8172,15.4364752 149.752363,15.0590012 C149.687363,14.6815273 149.598963,14.3836412 149.486838,14.165343 C149.374713,13.9472073 149.224075,13.8380582 149.03525,13.8380582 C148.622175,13.8380582 148.415638,14.4102788 148.415638,15.5545576 Z" id="Fill-15"></path>
                <path d="M155.35585,12.8294036 C155.35585,12.4873382 155.329362,12.2394788 155.276225,12.0861503 C155.223087,11.9328218 155.1966,11.7911879 155.1966,11.6614109 C155.1966,11.4845309 155.291012,11.3399733 155.479838,11.2279006 C155.668663,11.1158279 155.892912,11.0597915 156.152588,11.0597915 C156.754488,11.0597915 157.229475,11.2162061 157.577712,11.5287103 C157.92595,11.841377 158.099987,12.2159273 158.099987,12.6523612 L158.099987,14.2805018 C158.3478,13.7730885 158.61625,13.3012461 158.9055,12.8648121 C159.194587,12.4282158 159.5074,12.0478182 159.843775,11.723457 C160.18015,11.3989333 160.540087,11.1453891 160.92375,10.9624994 C161.30725,10.7796097 161.723412,10.6881648 162.171912,10.6881648 C162.773,10.6881648 163.27025,10.8002376 163.658625,11.024383 C164.048625,11.2485285 164.35575,11.5376436 164.58,11.8915661 C164.80425,12.2454885 164.96025,12.6406667 165.048,13.0771006 C165.137375,13.513697 165.18125,13.9382739 165.18125,14.3511564 L165.18125,21.8541818 C165.18125,21.9366933 165.18775,22.0693939 165.199125,22.2522836 C165.2105,22.4351733 165.24625,22.6209867 165.30475,22.8097236 C165.364875,22.9984606 165.455875,23.1636461 165.579375,23.30528 C165.7045,23.4467515 165.88325,23.5175685 166.1205,23.5175685 C166.486125,23.5175685 166.801375,23.3877915 167.06625,23.1282376 C167.33275,22.8686836 167.561875,22.5443224 167.756875,22.1549915 C167.951875,21.7656606 168.111125,21.3440073 168.234625,20.8897067 C168.35975,20.4355685 168.462125,20.0079055 168.545,19.60688 C168.6165,19.2292436 168.7335,18.9550715 168.89925,18.7840388 C169.065,18.6128436 169.235625,18.5274085 169.41275,18.5274085 C169.554125,18.5274085 169.702,18.5715879 169.85475,18.6601091 C170.009125,18.7486303 170.14725,18.8636267 170.27075,19.0050982 C170.395875,19.1467321 170.495,19.3060703 170.573,19.4829503 C170.649375,19.6598303 170.68675,19.8368727 170.68675,20.0137527 L170.68675,20.1022739 C170.68675,20.1376824 170.675375,20.1907952 170.652625,20.2616121 C170.49825,20.8632315 170.288625,21.4944121 170.02375,22.1549915 C169.75725,22.8155709 169.416,23.4232 168.99675,23.9777164 C168.5775,24.5320703 168.078625,24.9922182 167.500125,25.3578352 C166.921625,25.7236145 166.244,25.9065042 165.464,25.9065042 C164.981375,25.9065042 164.552375,25.8150594 164.181875,25.6321697 C163.80975,25.44928 163.49125,25.2045067 163.22475,24.8978497 C162.959875,24.5910303 162.758375,24.2312606 162.6235,23.8183782 C162.48765,23.4054958 162.419725,22.9690618 162.419725,22.5089139 L162.419725,15.1475224 C162.419725,14.864417 162.413875,14.5990158 162.402012,14.3511564 C162.39015,14.1034594 162.357812,13.8851612 162.304675,13.6964242 C162.251538,13.5076873 162.174837,13.3572824 162.074412,13.2452097 C161.97415,13.133137 161.835538,13.0771006 161.658412,13.0771006 C161.398737,13.0771006 161.080075,13.254143 160.702425,13.6080655 C160.324775,13.9619879 159.952975,14.4219733 159.587025,14.9881842 C159.221238,15.5545576 158.89965,16.1945091 158.622263,16.9082012 C158.344875,17.6218933 158.170838,18.3386715 158.099987,19.0582109 L158.099987,24.3491806 C158.099987,24.526223 158.097062,24.7061891 158.09105,24.8889164 C158.0852,25.0718061 158.049775,25.2369915 157.984938,25.3844727 C157.919937,25.5319539 157.819675,25.6557212 157.683988,25.7560994 C157.548137,25.8563152 157.350538,25.9065042 157.090862,25.9065042 C156.913737,25.9065042 156.721987,25.8858764 156.51545,25.8444582 C156.308912,25.8032024 156.120088,25.7265382 155.948975,25.6144655 C155.777862,25.5023927 155.636162,25.343217 155.524038,25.1367758 C155.411912,24.9303345 155.35585,24.656 155.35585,24.3139345 L155.35585,12.8294036 Z" id="Fill-16"></path>
                <path d="M170.493375,19.9253939 C170.399125,20.3028679 170.222,20.5357842 169.962,20.6243055 C169.702,20.7128267 169.44525,20.7038933 169.19175,20.5978303 C168.93825,20.4916048 168.725375,20.3087152 168.55475,20.0491612 C168.3825,19.7896073 168.33375,19.5065018 168.403625,19.1998448 C168.58075,18.3976315 168.8375,17.5098206 169.173875,16.5365745 C169.51025,15.5633285 169.843375,14.5930061 170.174875,13.6257697 C169.99775,13.3543588 169.856375,13.0800242 169.749125,12.8029285 C169.6435,12.5256703 169.589875,12.2336315 169.589875,11.9269745 C169.589875,11.6201552 169.70525,11.2987176 169.936,10.9624994 C170.165125,10.6262812 170.443,10.3165382 170.768,10.0334327 C171.091375,9.75032727 171.42775,9.51741091 171.777125,9.33452121 C172.124875,9.15163152 172.42225,9.06018667 172.670875,9.06018667 C173.108,9.06018667 173.434625,9.20766788 173.652375,9.5026303 C173.87175,9.79759273 173.980625,10.1927709 173.980625,10.6881648 C173.980625,10.9595758 173.93675,11.2279006 173.847375,11.4933018 C173.759625,11.7588655 173.662125,12.0065624 173.5565,12.2365552 C173.44925,12.4667103 173.35175,12.6642182 173.264,12.8294036 C173.174625,12.9945891 173.12425,13.1006521 173.112875,13.1479176 C173.538625,13.9028655 173.980625,14.5694545 174.4405,15.1475224 C174.902,15.7255903 175.322875,16.2978109 175.706375,16.8640218 C176.089875,17.4302327 176.40675,18.0318521 176.65375,18.66888 C176.902375,19.3060703 177.025875,20.0551709 177.025875,20.9163442 C177.025875,21.1286327 177.01125,21.3469309 176.982,21.5710764 C176.951125,21.7952218 176.90725,22.0075103 176.84875,22.2081042 C177.272875,22.1254303 177.64825,21.9956533 177.97325,21.8187733 C178.296625,21.6418933 178.581,21.4383758 178.823125,21.2082206 C179.06525,20.9782279 179.265125,20.7276073 179.424375,20.4561964 C179.583625,20.1849479 179.716875,19.90168 179.8225,19.60688 C179.9525,19.2646521 180.0825,19.0169552 180.2125,18.8636267 C180.3425,18.7102982 180.490375,18.6336339 180.6545,18.6336339 C180.808875,18.6336339 180.964875,18.6836606 181.124125,18.7840388 C181.283375,18.8842545 181.42475,19.0111079 181.54825,19.1644364 C181.673375,19.3177648 181.7725,19.477103 181.8505,19.6422885 C181.926875,19.8073115 181.96425,19.9547927 181.96425,20.0845697 C181.96425,20.2616121 181.917125,20.4739006 181.822875,20.7215976 C181.728625,20.969457 181.601875,21.2230012 181.442625,21.4825552 C181.283375,21.7421091 181.103,21.9927297 180.903125,22.2345794 C180.701625,22.4764291 180.49525,22.6857939 180.282375,22.8628364 C179.716875,23.3228218 179.050625,23.7092291 178.282,24.0218958 C177.515,24.3345624 176.566,24.5320703 175.43175,24.6147442 C174.99625,24.9922182 174.4795,25.3017988 173.883125,25.5436485 C173.28675,25.7854982 172.61725,25.9065042 171.874625,25.9065042 C171.496,25.9065042 171.10925,25.8592388 170.714375,25.7648703 C170.3195,25.6705018 169.940875,25.5496582 169.58175,25.402177 C169.221,25.2546958 168.894375,25.0924339 168.598625,24.9155539 C168.302875,24.7385115 168.06725,24.5616315 167.890125,24.3845891 C167.441625,23.9600121 167.152375,23.5323491 167.022375,23.1017624 C166.892375,22.6711758 166.8615,22.2847685 166.924875,21.942703 C166.989875,21.6004752 167.116625,21.3202933 167.30675,21.1021576 C167.49525,20.8838594 167.69025,20.7747103 167.890125,20.7747103 C168.00875,20.7747103 168.194,20.8248994 168.4475,20.9251152 C168.702625,21.0254933 168.9935,21.1551079 169.325,21.3144461 C169.654875,21.4737842 170.015625,21.6418933 170.404,21.8187733 C170.794,21.9956533 171.184,22.1637624 171.572375,22.3231006 C171.962375,22.4824388 172.342625,22.6120533 172.71475,22.7124315 C173.086875,22.8126473 173.4265,22.8628364 173.732,22.8628364 C173.9335,22.6268339 174.117125,22.3143297 174.28125,21.9249988 C174.447,21.5356679 174.529875,21.1109285 174.529875,20.650943 C174.529875,20.0845697 174.4535,19.5596145 174.299125,19.0759152 C174.146375,18.5922158 173.944875,18.1439248 173.697875,17.7310424 C173.44925,17.31816 173.16975,16.9317527 172.856125,16.571983 C172.544125,16.2122133 172.22725,15.8730715 171.90875,15.5545576 C171.626,16.2505455 171.377375,16.9377624 171.166125,17.6160461 C170.95325,18.2943297 170.729,19.0642206 170.493375,19.9253939 Z" id="Fill-17"></path>
            </g>
        </g>
    </g>
</svg>