<?xml version="1.0" standalone="no"?>
<!DOCTYPE svg PUBLIC "-//W3C//DTD SVG 20010904//EN"
 "http://www.w3.org/TR/2001/REC-SVG-20010904/DTD/svg10.dtd">
<svg version="1.0" xmlns="http://www.w3.org/2000/svg"
 width="700.000000pt" height="700.000000pt" viewBox="0 0 700.000000 700.000000"
 preserveAspectRatio="xMidYMid meet">
<metadata>
Created by potrace 1.11, written by Peter Selinger 2001-2013
</metadata>
<g transform="translate(0.000000,700.000000) scale(0.100000,-0.100000)"
fill="#000000" stroke="none">
<path d="M3195 6790 c-674 -68 -1298 -327 -1804 -750 -122 -101 -332 -310
-424 -420 -402 -483 -654 -1058 -744 -1700 -22 -158 -25 -640 -5 -800 75 -598
295 -1143 652 -1615 533 -704 1309 -1155 2208 -1281 156 -21 510 -29 683 -15
1315 111 2430 975 2859 2216 132 382 188 754 177 1168 -6 232 -23 379 -67 589
-79 372 -212 709 -412 1037 -223 368 -543 714 -888 961 -445 318 -948 517
-1502 595 -134 19 -597 28 -733 15z m526 -710 c624 -61 1172 -316 1605 -748
366 -365 614 -823 713 -1317 38 -191 46 -277 46 -510 0 -233 -8 -319 -46 -510
-163 -814 -728 -1523 -1479 -1855 -871 -386 -1853 -280 -2599 280 -492 369
-823 865 -972 1454 -46 182 -69 358 -76 576 -5 176 -4 197 11 213 10 9 23 17
29 17 6 0 209 -197 452 -439 571 -568 581 -575 1010 -691 505 -136 615 -166
815 -220 300 -82 975 -267 1220 -335 359 -100 391 -107 440 -100 133 20 235
146 216 266 -6 40 -330 1237 -530 1962 -63 226 -136 489 -161 582 -51 184 -82
262 -141 352 -23 35 -219 240 -496 518 -252 253 -458 468 -458 477 0 9 8 22
18 27 22 13 251 14 383 1z m-816 -860 c379 -380 576 -571 611 -590 68 -39 153
-60 245 -60 116 0 115 2 159 -262 51 -309 118 -538 248 -848 68 -164 77 -191
68 -223 -3 -13 -53 -65 -111 -117 -58 -51 -160 -153 -226 -227 -86 -95 -127
-133 -143 -133 -12 0 -89 20 -172 44 -82 25 -369 108 -639 186 -269 77 -495
146 -502 152 -9 7 -13 37 -13 92 0 44 -7 105 -15 135 -35 132 -32 129 -637
736 -312 314 -568 578 -568 587 0 32 153 283 179 293 10 4 203 -182 570 -549
357 -356 576 -567 613 -590 172 -108 453 -127 580 -39 33 22 42 37 64 107 34
107 41 218 21 324 -32 168 -6 136 -642 772 -379 379 -575 582 -575 595 0 20
13 30 120 98 109 68 171 97 189 88 9 -5 268 -262 576 -571z"/>
</g>
</svg>
