<svg width="136" height="60" viewBox="0 0 136 60" fill="none" xmlns="http://www.w3.org/2000/svg">
<g clip-path="url(#clip0_667_84389)">
<path d="M46.4972 0.000167847H39.0035V4.46406H22.5013V1.50496L1.5048 4.50446V10.5034L10.5033 9.21074V17.9971H1.5048V23.9961H8.99848L0 52.4964H5.99899L10.5033 38.2463V60.0002H16.5023V23.9961H22.5013V17.9971H16.5023V8.3624L22.5013 7.50395V10.5034H62.9995V4.46406H46.4972V0.000167847Z" fill="#222529"/>
<path d="M54.0013 23.9961V19.5019V16.5024V13.5029H31.5V17.9971V19.5019V23.9961H37.499V19.5019H48.0023V23.9961H54.0013Z" fill="#222529"/>
<path d="M22.501 28.5004V32.9946V60.0001H28.5V32.9946H57.0002V60.0001H62.9992V32.9946V31.4999V26.9956H22.501V28.5004Z" fill="#222529"/>
<path d="M37.499 36.0042H31.5V47.9921H37.499V36.0042Z" fill="#222529"/>
<path d="M47.9928 46.4975C47.9929 46.8948 47.8357 47.276 47.5557 47.5579C47.2757 47.8398 46.8955 47.9996 46.4982 48.0022H37.5098V54.0012H47.9928C49.5839 54.0012 51.1097 53.3692 52.2348 52.2441C53.3598 51.1191 53.9918 49.5933 53.9918 48.0022V36.0043H47.9928V46.4975Z" fill="#222529"/>
<path d="M81.9869 10.5034H129.999V4.50446H109.639V0.000167847H102.145V4.50446H81.9869H75.998V10.5034V16.5024H81.9869V10.5034Z" fill="#222529"/>
<path d="M120.99 54.0012H120.242C116.442 54.0066 112.659 53.504 108.992 52.5065V23.9658H128.493V17.9668H83.4909V23.9658H102.993V50.3553C98.1496 48.2208 93.7481 45.1997 90.0151 41.4478C89.601 41.0438 89.2071 40.6296 88.8234 40.2055C89.5021 36.8363 89.8672 33.4114 89.9141 29.9749H83.9151C83.9151 31.1565 83.8343 32.328 83.7333 33.4995C83.0467 41.6427 80.3126 49.4803 75.7852 56.2836L80.4813 60.0405C82.4996 57.0703 84.2181 53.9072 85.6118 50.5977C86.1268 49.3959 86.6217 48.184 87.0055 46.9519C96.0032 55.409 107.894 60.1061 120.242 60.081H135.987V54.0819L120.99 54.0012Z" fill="#222529"/>
<path d="M135.989 10.5034H130V16.5024H135.989V10.5034Z" fill="#222529"/>
<path d="M128.493 32.9946H111.991V38.9936H128.493V32.9946Z" fill="#222529"/>
</g>
<defs>
<clipPath id="clip0_667_84389">
<rect width="136" height="60" fill="white"/>
</clipPath>
</defs>
</svg>
