<svg width="556" height="245" viewBox="0 0 556 245" fill="none" xmlns="http://www.w3.org/2000/svg">
<path d="M238.854 55.7949H223.104C222.363 55.7949 221.807 56.3505 221.807 57.0912V119.775C221.807 120.516 222.363 121.071 223.104 121.071H238.854C239.596 121.071 240.152 120.516 240.152 119.775V57.0912C240.152 56.3505 239.596 55.7949 238.854 55.7949Z" fill="white"/>
<path d="M128.228 80.424L69.8581 46.8136C66.8933 45.0543 63.2799 45.0543 60.3151 46.8136C57.3502 48.4802 55.5898 51.6283 55.5898 54.9615V57.2763L82.366 72.6464V92.2756L99.2286 82.5536V82.461L126.097 97.9237L128.043 96.8126C129.433 95.9793 130.637 94.8682 131.379 93.4793C134.343 88.8498 132.768 83.0166 128.228 80.424Z" fill="#8F91CF"/>
<path d="M71.8956 110.609V78.8499L55.6816 69.5908V119.96V122.275V123.386H55.7743C56.1449 126.349 57.8126 129.034 60.4995 130.516C63.3717 132.182 66.9851 132.182 69.9499 130.516L115.72 104.035L99.5057 94.6829L71.8956 110.609Z" fill="#8F91CF"/>
<path d="M465.387 123.293C448.524 123.293 430.457 114.219 430.457 88.6641C430.457 63.1091 448.524 54.0352 465.387 54.0352C482.342 54.0352 500.409 63.1091 500.409 88.6641C500.409 114.219 482.342 123.293 465.387 123.293ZM465.387 67.646C455.658 67.646 448.895 76.2569 448.895 88.5715C448.895 100.516 456.029 109.497 465.387 109.497C474.837 109.497 481.971 100.516 481.971 88.5715C481.971 76.2569 475.115 67.646 465.387 67.646Z" fill="white"/>
<path d="M360.413 67.091V57.0912C360.413 56.3505 359.857 55.7949 359.116 55.7949H320.295C319.554 55.7949 318.998 56.3505 318.998 57.0912V119.868C318.998 120.609 319.554 121.164 320.295 121.164H359.116C359.857 121.164 360.413 120.609 360.413 119.868V109.868C360.413 109.127 359.857 108.572 359.116 108.572H338.733C337.992 108.572 337.436 108.016 337.436 107.275V95.5164C337.436 94.7757 337.992 94.2201 338.733 94.2201H359.116C359.857 94.2201 360.413 93.6646 360.413 92.9239V82.9241C360.413 82.1833 359.857 81.6278 359.116 81.6278H338.733C337.992 81.6278 337.436 81.0722 337.436 80.3315V69.8687C337.436 69.128 337.992 68.5725 338.733 68.5725H359.116C359.857 68.3873 360.413 67.8317 360.413 67.091Z" fill="white"/>
<path d="M193.64 120.238L210.595 56.9986C210.78 56.3505 210.317 55.7949 209.669 55.7949H193.918C193.269 55.7949 192.806 56.2579 192.713 56.8134L184.097 96.8127C184.004 97.2756 183.541 97.646 183.078 97.646C182.614 97.646 182.151 97.2756 182.059 96.8127L173.442 56.8134C173.349 56.2579 172.793 55.7949 172.145 55.7949H155.468C154.819 55.7949 154.356 56.4431 154.541 56.9986L172.052 120.238C172.238 120.794 172.701 121.164 173.257 121.164H192.528C192.899 121.164 193.455 120.794 193.64 120.238Z" fill="white"/>
<path d="M408.869 120.238L425.824 56.9986C426.009 56.3505 425.546 55.7949 424.897 55.7949H409.146C408.498 55.7949 408.035 56.2579 407.942 56.8134L399.325 96.8127C399.233 97.2756 398.77 97.646 398.306 97.646C397.843 97.646 397.38 97.2756 397.287 96.8127L388.671 56.8134C388.578 56.2579 388.022 55.7949 387.373 55.7949H370.696C370.048 55.7949 369.584 56.4431 369.77 56.9986L387.281 120.238C387.466 120.794 387.929 121.164 388.485 121.164H407.757C408.22 121.164 408.776 120.794 408.869 120.238Z" fill="white"/>
<path d="M278.137 55.7949H254.604C253.863 55.7949 253.307 56.3505 253.307 57.0912L253.585 119.868C253.585 120.609 254.141 121.164 254.882 121.164H278.137C300.651 121.164 308.619 103.294 308.619 87.8314C308.619 75.7945 304.635 55.7949 278.137 55.7949ZM278.045 107.831H272.3C271.744 107.831 271.374 107.368 271.374 106.905V69.9613C271.374 69.4058 271.837 69.0354 272.3 69.0354H277.952C285.457 69.0354 289.997 76.0723 289.997 87.7388C289.904 100.146 285.364 107.831 278.045 107.831Z" fill="white"/>
<path d="M322.424 175.886C322.331 175.793 322.424 175.608 322.516 175.608H323.165C323.165 175.608 323.165 175.608 323.258 175.608C329.002 175.052 333.82 171.256 333.82 164.682C333.82 157.09 327.705 153.571 320.663 153.571H287.68C287.216 153.571 286.846 153.942 286.846 154.405V188.2C286.846 188.663 287.216 189.034 287.68 189.034H298.242C298.705 189.034 299.076 188.663 299.076 188.2V177.367C299.076 176.904 299.446 176.534 299.91 176.534H306.766C307.692 176.534 308.619 176.904 309.267 177.645L318.996 188.663C319.181 188.756 319.366 188.848 319.552 188.941H333.449C334.19 188.941 334.561 188.108 334.005 187.552L322.424 175.886ZM318.069 168.571H299.817C299.354 168.571 298.983 168.201 298.983 167.738V162.645C298.983 162.182 299.354 161.812 299.817 161.812H317.791C320.385 161.812 322.053 163.108 322.053 165.053C322.053 167.46 320.478 168.571 318.069 168.571Z" fill="white"/>
<path d="M455.656 153.571H445.094C444.63 153.571 444.26 153.942 444.26 154.405V176.812C444.26 177.275 444.63 177.645 445.094 177.645H455.656C456.119 177.645 456.49 177.275 456.49 176.812V154.405C456.397 153.849 456.026 153.571 455.656 153.571Z" fill="white"/>
<path d="M455.656 182.367H445.094C444.63 182.367 444.26 182.738 444.26 183.2V188.2C444.26 188.663 444.63 189.034 445.094 189.034H455.656C456.119 189.034 456.49 188.663 456.49 188.2V183.2C456.397 182.738 456.026 182.367 455.656 182.367Z" fill="white"/>
<path d="M499.017 187.83L485.489 169.867C485.212 169.497 485.212 168.941 485.582 168.571L498.368 154.497C498.739 154.127 498.461 153.479 497.905 153.479H486.787C486.509 153.479 486.231 153.571 486.045 153.849L473.63 167.46C473.537 167.46 473.537 167.552 473.445 167.552H472.982C472.889 167.552 472.796 167.46 472.796 167.367V154.312C472.796 153.941 472.518 153.571 472.055 153.571H461.956C461.585 153.571 461.215 153.941 461.215 154.312V188.2C461.215 188.57 461.493 188.848 461.863 188.848H472.148C472.518 188.848 472.796 188.57 472.796 188.2V181.904C472.796 181.626 472.889 181.348 473.074 181.163L477.614 176.348C477.614 176.348 477.614 176.256 477.707 176.256H478.355C478.448 176.256 478.448 176.348 478.448 176.348L487.528 188.478C487.713 188.756 487.991 188.941 488.362 188.941H498.553C499.017 188.848 499.294 188.293 499.017 187.83Z" fill="white"/>
<path d="M350.312 161.627H360.597C361.06 161.627 361.431 161.256 361.431 160.793V154.312C361.431 153.849 361.06 153.479 360.597 153.479H339.287C338.824 153.479 338.453 153.849 338.453 154.312V188.107C338.453 188.57 338.824 188.941 339.287 188.941H360.597C361.06 188.941 361.431 188.57 361.431 188.107V181.626C361.431 181.163 361.06 180.793 360.597 180.793H350.22C349.757 180.793 349.386 180.422 349.386 179.96V175.793C349.386 175.33 349.757 174.96 350.22 174.96H360.504C360.967 174.96 361.338 174.589 361.338 174.126V167.83C361.338 167.367 360.967 166.997 360.504 166.997H350.312C349.849 166.997 349.479 166.626 349.479 166.163V162.46C349.386 161.997 349.757 161.627 350.312 161.627Z" fill="white"/>
<path d="M378.016 161.627H388.3C388.763 161.627 389.134 161.256 389.134 160.793V154.312C389.134 153.849 388.763 153.479 388.3 153.479H366.99C366.527 153.479 366.156 153.849 366.156 154.312V188.107C366.156 188.57 366.527 188.941 366.99 188.941H388.3C388.763 188.941 389.134 188.57 389.134 188.107V181.626C389.134 181.163 388.763 180.793 388.3 180.793H377.923C377.46 180.793 377.089 180.422 377.089 179.96V175.793C377.089 175.33 377.46 174.96 377.923 174.96H388.3C388.763 174.96 389.134 174.589 389.134 174.126V167.83C389.134 167.367 388.763 166.997 388.3 166.997H378.016C377.552 166.997 377.182 166.626 377.182 166.163V162.46C377.089 161.997 377.46 161.627 378.016 161.627Z" fill="white"/>
<path d="M271.002 161.627H281.286C281.749 161.627 282.12 161.256 282.12 160.793V154.312C282.12 153.849 281.749 153.479 281.286 153.479H259.976C259.513 153.479 259.143 153.849 259.143 154.312V188.107C259.143 188.57 259.513 188.941 259.976 188.941H269.334C269.797 188.941 270.168 188.57 270.168 188.107V175.793C270.168 175.33 270.539 174.96 271.002 174.96H281.286C281.749 174.96 282.12 174.589 282.12 174.126V167.83C282.12 167.367 281.749 166.997 281.286 166.997H271.002C270.539 166.997 270.168 166.626 270.168 166.163V162.46C270.168 161.997 270.539 161.627 271.002 161.627Z" fill="white"/>
<path d="M426.563 153.571H394.691C394.228 153.571 393.857 153.942 393.857 154.405V188.2C393.857 188.663 394.228 189.034 394.691 189.034H405.254C405.717 189.034 406.087 188.663 406.087 188.2V176.997C406.087 176.812 406.273 176.626 406.458 176.626H426.656C434.717 176.626 440.924 172.367 440.924 164.96C440.832 157.46 434.717 153.571 426.563 153.571ZM424.988 168.571H406.829C406.365 168.571 405.995 168.201 405.995 167.738V162.645C405.995 162.182 406.365 161.812 406.829 161.812H424.803C427.397 161.812 429.065 163.108 429.065 165.053C429.065 167.46 427.49 168.571 424.988 168.571Z" fill="white"/>
<path d="M193.824 188.755V156.349H199.569V168.478H199.847C200.125 167.922 200.588 167.274 201.051 166.626C201.607 165.978 202.348 165.423 203.275 164.867C204.201 164.404 205.313 164.126 206.795 164.126C208.648 164.126 210.316 164.589 211.891 165.608C213.374 166.534 214.578 167.922 215.505 169.867C216.431 171.719 216.802 174.033 216.802 176.719C216.802 179.404 216.338 181.626 215.505 183.478C214.671 185.33 213.466 186.718 211.891 187.737C210.316 188.755 208.648 189.218 206.795 189.218C205.406 189.218 204.294 189.033 203.367 188.478C202.441 188.015 201.7 187.459 201.144 186.811C200.588 186.163 200.125 185.515 199.847 184.959H199.476V188.755H193.824ZM199.476 176.626C199.476 178.2 199.661 179.589 200.124 180.7C200.588 181.904 201.236 182.83 202.07 183.478C202.904 184.126 203.923 184.496 205.128 184.496C206.425 184.496 207.444 184.126 208.278 183.478C209.112 182.83 209.76 181.904 210.223 180.7C210.687 179.496 210.872 178.2 210.872 176.626C210.872 175.145 210.687 173.756 210.223 172.645C209.76 171.441 209.112 170.608 208.278 169.867C207.444 169.219 206.332 168.848 205.128 168.848C203.923 168.848 202.904 169.126 201.978 169.774C201.144 170.422 200.495 171.348 200.032 172.459C199.661 173.663 199.476 175.052 199.476 176.626ZM224.306 197.829C223.565 197.829 222.824 197.737 222.175 197.644C221.527 197.552 220.971 197.366 220.6 197.274L221.898 192.829C222.731 193.107 223.473 193.2 224.121 193.2C224.77 193.2 225.326 193.015 225.882 192.552C226.345 192.181 226.808 191.533 227.179 190.607L227.642 189.311L218.84 164.589H224.862L230.421 182.922H230.699L236.351 164.589H242.466L232.738 191.811C232.274 193.107 231.719 194.218 230.977 195.144C230.236 196.07 229.31 196.811 228.198 197.274C227.086 197.552 225.789 197.829 224.306 197.829Z" fill="white"/>
</svg>
