<svg id="6220c05a-f30f-41a6-ac59-d476f90318e0" data-name="5fca8805-9eb0-474b-be62-17bc523ba4b2" xmlns="http://www.w3.org/2000/svg" xmlns:xlink="http://www.w3.org/1999/xlink" viewBox="0 0 1789.53 498.45"><defs><linearGradient id="37f6fb27-12fa-40ad-ac4e-1a5fa7106ed0" x1="716.74" y1="46.24" x2="730.34" y2="-213.28" gradientTransform="matrix(1, 0, 0, -1, -105.39, 326.75)" gradientUnits="userSpaceOnUse"><stop offset="0" stop-color="#399cff"/><stop offset="0.33" stop-color="#218ef8"/><stop offset="0.75" stop-color="#097ff1"/><stop offset="1" stop-color="#007aef"/></linearGradient><linearGradient id="7c15a1d8-fb3a-40d3-8e8e-72fb391395a0" x1="641.34" y1="40.45" x2="641.34" y2="289.7" xlink:href="#37f6fb27-12fa-40ad-ac4e-1a5fa7106ed0"/><linearGradient id="80dd6b2b-0cad-4558-8f23-c720ce7693c1" x1="375.98" y1="-208.74" x2="375.98" y2="289.68" gradientTransform="matrix(1, 0, 0, -1, -105.39, 326.75)" gradientUnits="userSpaceOnUse"><stop offset="0" stop-color="#007aef"/><stop offset="1" stop-color="#399cff"/></linearGradient><linearGradient id="7b3d3b3c-58a1-479c-a8de-cb870e5def07" x1="722.91" y1="300.8" x2="790.31" y2="300.8" gradientTransform="matrix(1, 0, 0, -1, -120.51, 560.97)" xlink:href="#37f6fb27-12fa-40ad-ac4e-1a5fa7106ed0"/><linearGradient id="17907ade-f960-4b74-b633-c0ca20a98caa" x1="837.78" y1="486.23" x2="889.52" y2="486.23" gradientTransform="matrix(1, 0, 0, -1, -120.51, 560.97)" xlink:href="#37f6fb27-12fa-40ad-ac4e-1a5fa7106ed0"/><linearGradient id="fd1d052f-9447-44a4-91ff-7d08948e0238" x1="821.28" y1="218.09" x2="917.28" y2="218.09" gradientTransform="matrix(1, 0, 0, -1, -120.51, 560.97)" xlink:href="#37f6fb27-12fa-40ad-ac4e-1a5fa7106ed0"/><linearGradient id="a17cb2c1-d016-4e19-af19-52fdf6db465d" x1="778.73" y1="129.24" x2="833.2" y2="129.24" gradientTransform="matrix(1, 0, 0, -1, -120.51, 560.97)" xlink:href="#37f6fb27-12fa-40ad-ac4e-1a5fa7106ed0"/><linearGradient id="542c0bef-36a0-421b-a35d-d2a930c10e66" x1="1164.77" y1="128.84" x2="1438.1" y2="128.84" xlink:href="#37f6fb27-12fa-40ad-ac4e-1a5fa7106ed0"/><linearGradient id="8e127452-0381-42c5-bf1a-56fcc2eb6890" x1="1457.95" y1="127.77" x2="1717.54" y2="127.77" xlink:href="#37f6fb27-12fa-40ad-ac4e-1a5fa7106ed0"/><linearGradient id="f16a8c5c-b9d2-47ba-a1ca-c8088faf782e" x1="1751.62" y1="122.1" x2="2015.43" y2="122.1" xlink:href="#37f6fb27-12fa-40ad-ac4e-1a5fa7106ed0"/><linearGradient id="289d0ff6-a386-443b-aed8-f5051120d8ee" x1="1166.53" y1="-137.06" x2="1265.12" y2="-137.06" xlink:href="#37f6fb27-12fa-40ad-ac4e-1a5fa7106ed0"/><linearGradient id="c30c7482-eafe-49d2-8b82-f1d04d0a5878" x1="1270.96" y1="-137.02" x2="1336.81" y2="-137.02" xlink:href="#37f6fb27-12fa-40ad-ac4e-1a5fa7106ed0"/><linearGradient id="9a0e4e7d-e6c8-4e56-887f-93a0e1624dad" x1="1349.48" y1="-123.21" x2="1369.9" y2="-123.21" xlink:href="#37f6fb27-12fa-40ad-ac4e-1a5fa7106ed0"/><linearGradient id="7bc64f01-f127-4be5-b005-99314ac0660b" x1="1383.07" y1="-137.05" x2="1443.51" y2="-137.05" xlink:href="#37f6fb27-12fa-40ad-ac4e-1a5fa7106ed0"/><linearGradient id="a1bca414-708f-4f9c-96e3-b2fe0c8732da" x1="1459.54" y1="-123.21" x2="1479.96" y2="-123.21" xlink:href="#37f6fb27-12fa-40ad-ac4e-1a5fa7106ed0"/><linearGradient id="51f93d53-d4a6-4845-92b7-8e011c435642" x1="1490.06" y1="-150.05" x2="1554.88" y2="-150.05" xlink:href="#37f6fb27-12fa-40ad-ac4e-1a5fa7106ed0"/><linearGradient id="6bfff1d1-1c88-4e17-b328-d4b660cd1d45" x1="1565" y1="-137.92" x2="1625.82" y2="-137.92" xlink:href="#37f6fb27-12fa-40ad-ac4e-1a5fa7106ed0"/><linearGradient id="998a3c5d-bd43-48d7-83ef-304153667320" x1="1641.64" y1="-136.13" x2="1702.3" y2="-136.13" xlink:href="#37f6fb27-12fa-40ad-ac4e-1a5fa7106ed0"/><linearGradient id="6e364edc-375a-413c-a9d4-fc3c564fbcd2" x1="1717.96" y1="-161.42" x2="1738.63" y2="-161.42" xlink:href="#37f6fb27-12fa-40ad-ac4e-1a5fa7106ed0"/><linearGradient id="bdcc1b00-385b-41d2-820f-6b4e805b1bdf" x1="1825.55" y1="-137.04" x2="1893.97" y2="-137.04" xlink:href="#37f6fb27-12fa-40ad-ac4e-1a5fa7106ed0"/><linearGradient id="d44f7079-86e2-48ef-b1f0-74364311d929" x1="1907.07" y1="-136.13" x2="2007.68" y2="-136.13" xlink:href="#37f6fb27-12fa-40ad-ac4e-1a5fa7106ed0"/><linearGradient id="15068b9c-fed8-4c05-a0a6-1099ccab181b" x1="1751.67" y1="-137.03" x2="1812.11" y2="-137.03" xlink:href="#37f6fb27-12fa-40ad-ac4e-1a5fa7106ed0"/></defs><title>长_白底_完整_2_修改过大小后</title><path d="M734,519.5a25.85,25.85,0,0,1-9.7,11.93,25.5,25.5,0,0,1-12.71,4.05H599.4a29.3,29.3,0,0,1-28-20.74L501.52,286.26H652.17L681,380.61a25,25,0,0,0,14.53,47.52l25,81.79s1.58,5.17,5.86,7.91A11.55,11.55,0,0,0,734,519.5Z" transform="translate(-120.51 -37.03)" style="fill:url(#37f6fb27-12fa-40ad-ac4e-1a5fa7106ed0)"/><path id="aca7e3b0-9cc9-4373-9fc9-e70897bcbfde" data-name="61bf5fc0-c108-44eb-96fc-a6376fdfc645" d="M652.18,286.29,582.34,57.79a29.3,29.3,0,0,0-28-20.74H442.13a25.5,25.5,0,0,0-12.71,4.05A25.85,25.85,0,0,0,419.72,53a11.55,11.55,0,0,1,7.54,1.67c4.32,2.73,5.86,7.91,5.86,7.91S470.23,184,501.5,286.3Z" transform="translate(-120.51 -37.03)" style="fill:url(#7c15a1d8-fb3a-40d3-8e8e-72fb391395a0)"/><g id="5fbe6942-00a7-41ae-bd81-e36da0a3a6fe" data-name="3e79d844-7def-48be-8862-f68a137dd70c"><path d="M192.36,286.26l68.36,223.61a36.2,36.2,0,0,0,34.61,25.61H402.42a25.5,25.5,0,0,0,12.71-4.05,23,23,0,0,0,3.41-2.66,6.92,6.92,0,0,0-1.16-10.88l-.1-.07c-4.32-2.73-5.86-7.91-5.86-7.91S374.32,388.5,343,286.23h0L274.66,62.68a36.2,36.2,0,0,0-34.61-25.61H133a12.45,12.45,0,0,0-11.89,16.16L124,62.6S161.11,184,192.39,286.28" transform="translate(-120.51 -37.03)" style="fill:url(#80dd6b2b-0cad-4558-8f23-c720ce7693c1)"/></g><g id="4714280c-def3-444e-b6fa-dc40f18d5e60" data-name="824b49b2-81d9-49ca-8444-2e1563b13cbe"><path d="M498.35,286.29C529.6,184,566.72,62.6,566.72,62.6s1.58-5.17,5.86-7.91A11.55,11.55,0,0,1,580.12,53a25.85,25.85,0,0,0-9.7-11.93A25.5,25.5,0,0,0,557.71,37H445.52a29.3,29.3,0,0,0-28,20.76L347.7,286.29h0c-31.26,102.22-68.35,223.63-68.35,223.63s-1.58,5.17-5.86,7.91a11.55,11.55,0,0,1-7.54,1.67,25.85,25.85,0,0,0,9.7,11.93,25.5,25.5,0,0,0,12.71,4.05H400.55a29.3,29.3,0,0,0,28-20.74l69.79-228.48" transform="translate(-120.51 -37.03)" style="fill:#399cff"/></g><path d="M658.9,286.27H698a64.61,64.61,0,0,1,64.13-56.84c20.31,0,34.81,12.47,42.19,16.28s12.61,5.86,15.67,6.41,41.24,2.51,54.89-30.9S851.3,165,844.18,159.13s-29.35-23.3-29.35-45.65,9.37-37.27,30-46.22c14.8-4.58,28-3.59,33.66-8.58,7.49-6.6,7.27-21.65,7.27-21.65h-132a25.12,25.12,0,0,0-24,17.78L658,289.15h0Zm125.73,68.29c-3.58-3.11-16.36,4.14-24.91,4.14-35.68,0-62.24-28.93-62.24-64.61a65.16,65.16,0,0,1,.49-7.82H658.9l-.88,2.88,25.31,82.8,2.27,7.43A25,25,0,0,1,700.17,427l23.24,76a25.12,25.12,0,0,1-23,32.45h11.24a29.3,29.3,0,0,0,27.88-20.3l44.73-146.29.1-.31.46-1.5c1-3.31,2.52-10.2-.17-12.53Zm-61.21,148.5-23.24-76a25,25,0,1,1-14.58-47.67l-2.27-7.43L658,289.13C633.13,370.53,604.81,463.2,594.47,497c-6.7,17.85-24.18,14.1-24.18,14.1,1.53,4.94,2.18,9.56,8.63,16,8.23,8.37,18.22,8.23,21.13,8.37H700.4a25.12,25.12,0,0,0,23-32.41Z" transform="translate(-120.51 -37.03)" style="fill:#399cff"/><circle cx="636.1" cy="260.17" r="33.7" style="fill:url(#7b3d3b3c-58a1-479c-a8de-cb870e5def07)"/><circle cx="743.14" cy="74.73" r="25.87" style="fill:url(#17907ade-f960-4b74-b633-c0ca20a98caa)"/><circle cx="748.77" cy="342.88" r="48" style="fill:url(#fd1d052f-9447-44a4-91ff-7d08948e0238)"/><circle cx="685.45" cy="431.73" r="27.24" style="fill:url(#a17cb2c1-d016-4e19-af19-52fdf6db465d)"/><path d="M1129.69,76.18c-11.84,30.54-31.82,58.27-60.22,83.47a.78.78,0,0,1-1.26-.34l-8.8-27.79a.77.77,0,0,1,.2-.78,182.76,182.76,0,0,0,44.15-66.67.77.77,0,0,1,1-.42l24.49,11.56A.78.78,0,0,1,1129.69,76.18Zm.92,78a230.62,230.62,0,0,1-12.74,27.67.76.76,0,0,0-.09.36v150a.77.77,0,0,1-.77.77h-26.67a.77.77,0,0,1-.77-.77h0V223.52a.77.77,0,0,0-1.33-.52q-8.57,9.24-17.84,17.8a.78.78,0,0,1-1.27-.34l-8.52-27.19a.77.77,0,0,1,.19-.77,188.2,188.2,0,0,0,44.47-70.42.77.77,0,0,1,1-.47l.08,0,23.85,11.54A.78.78,0,0,1,1130.61,154.18ZM1188.18,291a13.81,13.81,0,0,0,6.07-8.85.85.85,0,0,0,0-.18V240.07a.77.77,0,0,0-.77-.77h-21.14a.77.77,0,0,0-.77.77h0v12.32c-.58,34.55-9.42,60.83-26,78.29a.78.78,0,0,1-1.08,0L1123,311.93a.76.76,0,0,1,0-1.07l0,0c13.57-13.65,20.36-33.23,20.65-58.47V212.73a.77.77,0,0,1,.77-.77h75.54a.77.77,0,0,1,.77.77h0v55.89a.77.77,0,0,0,1.3.56c5.69-5.43,11.59-11.11,17.5-17.23a.77.77,0,0,1,1.3.35l5.68,23.54a.78.78,0,0,1-.19.71,264,264,0,0,1-45.52,39.34.77.77,0,0,1-1.07-.21l-.05-.09-11.8-23.6a.77.77,0,0,1,.28-1Zm8.71-226.9V126a.77.77,0,0,0,.77.77H1208a.77.77,0,0,0,.77-.77h0V79.81a.77.77,0,0,1,.77-.77h22.89a.77.77,0,0,1,.77.77h0v62.53a10,10,0,0,1-10,10h-78a10,10,0,0,1-10-10V79.81A.77.77,0,0,1,1136,79h22.89a.77.77,0,0,1,.77.77h0V126a.77.77,0,0,0,.77.77h10.67a.77.77,0,0,0,.77-.77h0V64.1a.77.77,0,0,1,.77-.77h23.47a.77.77,0,0,1,.73.77ZM1253.22,195c-3.58,8.09-7.17,15.71-11,22.67a.77.77,0,0,1-1.29.1l-15.85-20a1,1,0,0,1,.29-.58h-88.52a.77.77,0,0,1-.77-.77h0V171.18a.77.77,0,0,1,.77-.77h91.53a.77.77,0,0,1,.77.77h0v13.3a.77.77,0,0,0,1.49.28c12.79-31.86,21.58-72.26,26.64-121.19a.77.77,0,0,1,.84-.69h.06l24.64,4.38a.77.77,0,0,1,.63.86c-1.67,12.8-3.35,25.32-5.28,37.06a.77.77,0,0,0,.64.88h49a.77.77,0,0,1,.77.77h0v26.67a.77.77,0,0,1-.77.77h-8.08a.77.77,0,0,0-.77.75c-1.5,47.23-8.43,87.59-21.09,121.09a.82.82,0,0,0,0,.64c9.73,20.24,21.43,36.27,34.53,47.81a.76.76,0,0,1,.13,1L1316,329.84a.78.78,0,0,1-1.09.2l-.1-.09c-11.09-11.26-21.11-25.71-29.81-43.36a.78.78,0,0,0-1.39,0,180.2,180.2,0,0,1-35.52,45.19.78.78,0,0,1-1.1-.06l-.08-.1-15.16-24.25a.76.76,0,0,1,.15-1c16-13.85,28.88-31.65,38.65-53.7a.73.73,0,0,0,0-.54,470.54,470.54,0,0,1-16-57,.78.78,0,0,0-1.4-.17Zm14.38-40.7a500.22,500.22,0,0,0,14,60.91.77.77,0,0,0,1.48,0c5.92-23.58,9.2-50.35,10.35-80a.78.78,0,0,0-.75-.81h-19.55a.78.78,0,0,0-.75.59c-1.66,6.69-3.07,12.85-4.75,19a.85.85,0,0,0,0,.3Z" transform="translate(-120.51 -37.03)" style="fill:url(#542c0bef-36a0-421b-a35d-d2a930c10e66)"/><path d="M1421.11,154.18V254.73a5,5,0,0,0,8.62,3.55q2.71-2.73,5.52-5.6a5,5,0,0,1,8.49,2.25l5.44,20.81a5,5,0,0,1-1.33,4.87A422.17,422.17,0,0,1,1401,320.79a5,5,0,0,1-7.64-2.09l-7.83-18.39a5.06,5.06,0,0,1,.91-5.36,20,20,0,0,0,5.32-13.78V183.26a5,5,0,0,0-5-5h-29.18a5,5,0,0,1-5-5V154.18a5,5,0,0,1,5-5h58.56A5,5,0,0,1,1421.11,154.18ZM1436.87,111l-13.66,13.85a5,5,0,0,1-7.07.11l-.26-.27c-9.9-11.14-23.11-22.86-39.48-35.18a5,5,0,0,1-.5-7.65L1390,68.18a5.05,5.05,0,0,1,6.66-.33A409.48,409.48,0,0,1,1436.9,104a5,5,0,0,1,0,7Zm106.85,216.45-5.11-18.82a5,5,0,0,1,5-6.35l25.81.69c8.14,0,12.51-4.65,12.51-14V105.89a5,5,0,0,0-5-5H1452.61a5,5,0,0,1-5-5V77.39a5,5,0,0,1,5-5h154.54a5,5,0,0,1,5,5V297.76c0,22.11-12.22,33.45-36.36,33.45h-27.18A5,5,0,0,1,1543.72,327.48Zm25.15-196v18.7a5,5,0,0,1-5,5H1459.31a5,5,0,0,1-5-5V131.49a5,5,0,0,1,5-5h104.52a5,5,0,0,1,5,5v0Zm-9,52.65v87.05a5,5,0,0,1-5,5h-87.65a5,5,0,0,1-5-5v-87a5,5,0,0,1,5-5h87.65a5,5,0,0,1,5,5Zm-33.55,21.43h-30.05a5,5,0,0,0-5,5v34.13a5,5,0,0,0,5,5h30.05a5,5,0,0,0,5-5V210.6a5,5,0,0,0-5-5h0Z" transform="translate(-120.51 -37.03)" style="fill:url(#8e127452-0381-42c5-bf1a-56fcc2eb6890)"/><path d="M1910,162.55v19.71a5.27,5.27,0,0,1-5.27,5.27H1775.72a5.28,5.28,0,0,0-4.71,2.91q-30.5,60.61-54.94,92.47a5.26,5.26,0,0,0,4.6,8.44c39.29-3,78.55-7.25,117.41-12.58a5.27,5.27,0,0,0,3.85-7.84c-7.06-12.36-14.49-24.9-22.43-37.61a5.27,5.27,0,0,1,1.67-7.26l0,0,15.6-9.66a5.27,5.27,0,0,1,7.16,1.56q35.41,53.09,56.15,93.47a5.27,5.27,0,0,1-1.66,6.73L1880.06,331a5.26,5.26,0,0,1-7.81-2.11c-3.11-6.79-6.39-13.5-9.93-20.32a5.26,5.26,0,0,0-5.39-2.77q-83.44,11.59-181.28,18.65a5.28,5.28,0,0,1-5.5-4l-5.43-21.32a5.59,5.59,0,0,1,2.33-6l3.61-2.39q25-18.31,64.22-95.6a5.27,5.27,0,0,0-4.7-7.66H1651.5a5.27,5.27,0,0,1-5.27-5.27h0V162.55a5.27,5.27,0,0,1,5.27-5.27h253.28A5.27,5.27,0,0,1,1910,162.55Zm-26.18-80v18.84a5.27,5.27,0,0,1-5.27,5.27H1679.71a5.27,5.27,0,0,1-5.27-5.27h0V82.56a5.27,5.27,0,0,1,5.27-5.27h198.9a5.27,5.27,0,0,1,5.26,5.27Z" transform="translate(-120.51 -37.03)" style="fill:url(#f16a8c5c-b9d2-47ba-a1ca-c8088faf782e)"/><path d="M1077.13,432.18l12.95,47.8h0l12.84-47.8a3,3,0,0,1,2.9-2.22H1115a3,3,0,0,1,2.9,2.22L1130.76,480h0l12.95-47.8a3,3,0,0,1,2.9-2.22h10.11a3,3,0,0,1,2.84,4l-20.88,61.75a3,3,0,0,1-2.84,2h-9.51a3,3,0,0,1-2.89-2.21l-12.93-47.31h0l-13.07,47.29a3,3,0,0,1-2.89,2.2H1085a3,3,0,0,1-2.84-2l-20.88-61.75a3,3,0,0,1,2.84-4h10.11A3,3,0,0,1,1077.13,432.18Z" transform="translate(-120.51 -37.03)" style="fill:url(#289d0ff6-a386-443b-aed8-f5051120d8ee)"/><path d="M1224.1,439.36a37.51,37.51,0,0,1,7.14,16.67,10,10,0,0,1-9.83,11.9h-40.09c.53,6.28,2.24,11.13,5.13,14.4s7.11,5,12.5,5c4.61,0,8.29-1,11.19-3.14,2.24-1.7,4.21-4.46,6.06-8.26h13a1.56,1.56,0,0,1,1.48,2,30.42,30.42,0,0,1-8.9,13.82c-6.05,5.11-13.56,7.73-22.64,7.73-10.14,0-18.17-3.15-24.09-9.3-6.32-6.42-9.48-15.2-9.48-26.47,0-10.09,2.9-18.48,9-25.29,5.79-7,13.82-10.35,24-10.35C1209.61,428.09,1218.18,431.76,1224.1,439.36Zm-37,5.11a19.37,19.37,0,0,0-4.73,8.62,2.82,2.82,0,0,0,2.73,3.57h28.18a2.78,2.78,0,0,0,2.71-3.41c-2.07-8.71-7.79-13-17.17-13-5,0-8.81,1.34-11.71,4.22Z" transform="translate(-120.51 -37.03)" style="fill:url(#c30c7482-eafe-49d2-8b82-f1d04d0a5878)"/><path d="M1261.61,405a10.09,10.09,0,0,1-.12,14.27h0a10.9,10.9,0,0,1-14.48,0,9.66,9.66,0,0,1-2.9-7.21A9.17,9.17,0,0,1,1247,405a10.17,10.17,0,0,1,7.24-2.75A10.49,10.49,0,0,1,1261.61,405Zm.13,32.4v52.76a7.5,7.5,0,0,1-7.5,7.5h0a7.5,7.5,0,0,1-7.5-7.5V437.43a7.5,7.5,0,0,1,7.5-7.5h0a7.5,7.5,0,0,1,7.51,7.49h0Z" transform="translate(-120.51 -37.03)" style="fill:url(#9a0e4e7d-e6c8-4e56-887f-93a0e1624dad)"/><path d="M1331.91,434a24,24,0,0,1,2.35,2.08,9.94,9.94,0,0,1-7.09,16.92h0c-.92-4.32-2.76-7.47-5.4-9.57s-6.45-3.14-10.93-3.14c-5.53,0-9.87,2-13,6.16s-4.74,9.83-4.74,17.17,1.45,13.37,4.61,17.56c2.9,4.06,7.24,6.16,13,6.16,10,0,15.53-5,16.72-14.81h.67c8,0,12.84,9,8.23,15.51a25.45,25.45,0,0,1-4.56,4.93c-5.26,4.32-12.37,6.55-21.19,6.55q-15.8,0-24.48-10.22c-5.66-6.55-8.42-15.07-8.42-25.55,0-10.22,2.76-18.61,8.29-25q8.89-10.62,24.88-10.62C1319.67,428.09,1326.61,430,1331.91,434Z" transform="translate(-120.51 -37.03)" style="fill:url(#7bc64f01-f127-4be5-b005-99314ac0660b)"/><path d="M1371.67,405a10.09,10.09,0,0,1-.12,14.27h0a10.9,10.9,0,0,1-14.48,0,9.66,9.66,0,0,1-2.9-7.21,9.17,9.17,0,0,1,2.9-7.08,10.17,10.17,0,0,1,7.24-2.75A10.49,10.49,0,0,1,1371.67,405Zm.13,32.4v52.76a7.5,7.5,0,0,1-7.5,7.5h0a7.5,7.5,0,0,1-7.5-7.5V437.43a7.5,7.5,0,0,1,7.5-7.5h0a7.5,7.5,0,0,1,7.5,7.5Z" transform="translate(-120.51 -37.03)" style="fill:url(#a1bca414-708f-4f9c-96e3-b2fe0c8732da)"/><path d="M1400.24,432l17.24,46.14,16.47-46.06A3.26,3.26,0,0,1,1437,430h9.25a3.26,3.26,0,0,1,3,4.45L1415,521.59a3.26,3.26,0,0,1-3,2.06h-8.87a3.26,3.26,0,0,1-3-4.56l9.45-21.7v-2.53l-24.64-60.42a3.26,3.26,0,0,1,3-4.49h9.22A3.26,3.26,0,0,1,1400.24,432Z" transform="translate(-120.51 -37.03)" style="fill:url(#51f93d53-d4a6-4845-92b7-8e011c435642)"/><path d="M1470.32,429.92a4.3,4.3,0,0,1,4.3,4.3h0v37c0,5.5,1.05,9.44,3.42,12.06s6.06,3.8,11.32,3.8c3.29,0,6.45-1.44,9.48-4.19a24,24,0,0,0,6.41-10.94l.17-1.21V434.18a4.3,4.3,0,0,1,4.3-4.3h6.41a4.3,4.3,0,0,1,4.3,4.3h0v59.15a4.3,4.3,0,0,1-4.3,4.3h-6.41a4.3,4.3,0,0,1-4.3-4.3h0v-4.48q-8.69,10.62-21.33,10.62c-16.32,0-24.48-9.17-24.48-27.39v-37.9a4.3,4.3,0,0,1,4.3-4.3h0Z" transform="translate(-120.51 -37.03)" style="fill:url(#6bfff1d1-1c88-4e17-b328-d4b660cd1d45)"/><path d="M1596.91,455.87v37.92a3.88,3.88,0,0,1-3.88,3.88h-7.25a3.88,3.88,0,0,1-3.88-3.88h0V457.18c0-11.14-5.13-16.64-15.4-16.64a13.77,13.77,0,0,0-9.74,3.93c-3.11,2.84-4.95,7-5.5,12.22V493.8a3.88,3.88,0,0,1-3.88,3.88h-7.25a3.88,3.88,0,0,1-3.88-3.88h0v-60a3.88,3.88,0,0,1,3.88-3.88h7.25a3.88,3.88,0,0,1,3.88,3.88h0v4a27.17,27.17,0,0,1,9-7.21,24.59,24.59,0,0,1,11.19-2.49C1588.35,428.09,1596.91,437.26,1596.91,455.87Z" transform="translate(-120.51 -37.03)" style="fill:url(#998a3c5d-bd43-48d7-83ef-304153667320)"/><path d="M1630.21,480.9a10.33,10.33,0,0,1,2.88,9.24,9.57,9.57,0,0,1-2.88,5.44h0a10.83,10.83,0,0,1-7.37,2.88,10,10,0,0,1-7.24-2.88,9.77,9.77,0,0,1-3-7.34,9.58,9.58,0,0,1,3-7.34,9.2,9.2,0,0,1,7.24-3A9.86,9.86,0,0,1,1630.21,480.9Z" transform="translate(-120.51 -37.03)" style="fill:url(#6e364edc-375a-413c-a9d4-fc3c564fbcd2)"/><path d="M1779.23,438.18c6.19,6.68,9.35,15.2,9.35,25.68s-3.16,18.87-9.21,25.42c-6.32,6.81-14.74,10.22-25,10.22s-18.69-3.41-25-10.22c-6.19-6.55-9.21-15.07-9.21-25.42s3-19,9.35-25.68,14.48-10.09,24.88-10.09S1772.91,431.36,1779.23,438.18Zm-39.36,9.43c-2.9,4.19-4.34,9.7-4.34,16.25s1.45,11.92,4.34,16.12c3.42,4.85,8.16,7.34,14.48,7.34a16.8,16.8,0,0,0,14.48-7.34,28.38,28.38,0,0,0,4.48-16.12c0-6.55-1.58-12.06-4.48-16.25-3.42-5-8.29-7.34-14.48-7.34S1743.29,442.63,1739.87,447.61Z" transform="translate(-120.51 -37.03)" style="fill:url(#bdcc1b00-385b-41d2-820f-6b4e805b1bdf)"/><path d="M1856.61,439.1q4.74-6.29,9.87-8.65a24.72,24.72,0,0,1,11.45-2.36,23.67,23.67,0,0,1,17.51,7c4.48,4.72,6.85,10.75,6.85,18.21v37.48a7,7,0,0,1-6.95,7h-1.12a7,7,0,0,1-6.95-7V455.87c0-5.37-1.18-9.3-3.42-11.66s-6.06-3.67-11.32-3.67a11.55,11.55,0,0,0-9.21,4.19c-2.63,2.75-3.82,6.55-3.82,11.53v34.46a7,7,0,0,1-6.95,7h-1.12a7,7,0,0,1-6.95-7V456c0-10.35-4.48-15.46-13.43-15.46a12.34,12.34,0,0,0-10.4,5,17.53,17.53,0,0,0-3.95,11.53v33.68a7,7,0,0,1-6.95,7h-1.12a7,7,0,0,1-6.95-7V436.87a7,7,0,0,1,6.95-7h1.12a7,7,0,0,1,6.95,7h0c5.66-5.9,11.85-8.78,18.43-8.78C1845.18,428.09,1852.29,431.76,1856.61,439.1Z" transform="translate(-120.51 -37.03)" style="fill:url(#d44f7079-86e2-48ef-b1f0-74364311d929)"/><path d="M1700.51,434a24,24,0,0,1,2.35,2.08,9.94,9.94,0,0,1-7.09,16.92h0c-.92-4.32-2.76-7.47-5.4-9.57s-6.45-3.14-10.93-3.14c-5.53,0-9.87,2-13,6.16s-4.74,9.83-4.74,17.17,1.45,13.37,4.61,17.56c2.9,4.06,7.24,6.16,13,6.16,10,0,15.53-5,16.72-14.81h.67c8,0,12.84,9,8.23,15.51a25.45,25.45,0,0,1-4.56,4.93c-5.26,4.32-12.37,6.55-21.19,6.55q-15.8,0-24.48-10.22c-5.66-6.55-8.42-15.07-8.42-25.55,0-10.22,2.76-18.61,8.29-25q8.89-10.62,24.88-10.62C1688.26,428.06,1695.24,430,1700.51,434Z" transform="translate(-120.51 -37.03)" style="fill:url(#15068b9c-fed8-4c05-a0a6-1099ccab181b)"/></svg>