<svg _ngcontent-hnw-c45="" width="25" height="30" xmlns="http://www.w3.org/2000/svg"><path _ngcontent-hnw-c45="" d="m6.53999,28.15908l2.49798,-21.11786l0.00488,0.07194c0.92974,3.55258 2.61658,6.51193 5.6995,7.12376c3.08292,0.61184 6.16295,-2.9981 6.16295,-4.66144l1.91883,0.58759l0,0.11634c-0.36364,2.6022 -1.37784,3.65148 -3.51476,6.07531c-2.13692,2.42383 -6.99147,6.97768 -12.76937,11.80435zm-2.70211,-4.03073l4.95843,0c9.13946,-8.83971 10.51908,-10.85876 11.3585,-13.52736c0.83942,-2.66859 -0.8705,-7.07465 -5.83097,-7.07465l-10.48596,0l0,20.60201zm4.22255,1.51753l-5.88955,0.08394l0,-23.88889l12.15234,0c5.82921,0 8.5059,3.15809 8.5059,8.4243l-14.76869,15.38065z" style="fill: rgb(0, 0, 47);"></path></svg>