<svg width="128" height="129" viewBox="0 0 128 129" fill="none" xmlns="http://www.w3.org/2000/svg">
<rect y="0.589844" width="128" height="128" rx="32.2064" fill="white"/>
<path d="M92.6981 63.4271L87.8537 93.0199C87.5378 94.8103 86.274 95.8634 84.4837 95.8634H43.4118C41.6215 95.8634 40.3577 94.8103 40.0418 93.0199L31.5115 40.2583C31.1955 38.468 32.1434 37.3096 33.8284 37.3096H94.0672C95.7522 37.3096 96.7 38.468 96.3841 40.2583L94.0672 54.1596C93.7512 56.1605 92.5928 57.003 90.6972 57.003H54.4696C53.9431 57.003 53.6271 57.319 53.7324 57.9508L56.5759 75.4327C56.6812 75.854 56.9971 76.1699 57.4184 76.1699H70.4771C70.8984 76.1699 71.2143 75.854 71.3196 75.4327L73.3206 62.7952C73.5312 61.2155 74.5843 60.5837 76.0587 60.5837H90.2759C92.3822 60.5837 93.0141 61.6368 92.6981 63.4271Z" fill="#1868DB"/>
</svg>
