<svg viewBox="0 0 309 249" fill="none" xmlns="http://www.w3.org/2000/svg" class="w-12 h-12"><path d="M164.156 89.6719C164.156 49.6744 131.732 17.25 91.7344 17.25C51.7369 17.25 19.3125 49.6744 19.3125 89.6719V157.266C19.3125 197.263 51.7369 229.688 91.7344 229.688C131.732 229.688 164.156 197.263 164.156 157.266V89.6719Z" fill="#D3D3D3"></path><path d="M164.156 89.6719C164.156 49.6744 131.732 17.25 91.7344 17.25C51.7369 17.25 19.3125 49.6744 19.3125 89.6719V157.266C19.3125 197.263 51.7369 229.688 91.7344 229.688C131.732 229.688 164.156 197.263 164.156 157.266V89.6719Z" fill="url(#paint0_radial_1_14)"></path><path d="M164.156 89.6719C164.156 49.6744 131.732 17.25 91.7344 17.25C51.7369 17.25 19.3125 49.6744 19.3125 89.6719V157.266C19.3125 197.263 51.7369 229.688 91.7344 229.688C131.732 229.688 164.156 197.263 164.156 157.266V89.6719Z" fill="url(#paint1_linear_1_14)"></path><path d="M164.156 89.6719C164.156 49.6744 131.732 17.25 91.7344 17.25C51.7369 17.25 19.3125 49.6744 19.3125 89.6719V157.266C19.3125 197.263 51.7369 229.688 91.7344 229.688C131.732 229.688 164.156 197.263 164.156 157.266V89.6719Z" fill="url(#paint2_radial_1_14)"></path><path d="M164.156 89.6719C164.156 49.6744 131.732 17.25 91.7344 17.25C51.7369 17.25 19.3125 49.6744 19.3125 89.6719V157.266C19.3125 197.263 51.7369 229.688 91.7344 229.688C131.732 229.688 164.156 197.263 164.156 157.266V89.6719Z" fill="url(#paint3_radial_1_14)"></path><path d="M164.156 89.6719C164.156 49.6744 131.732 17.25 91.7344 17.25C51.7369 17.25 19.3125 49.6744 19.3125 89.6719V157.266C19.3125 197.263 51.7369 229.688 91.7344 229.688C131.732 229.688 164.156 197.263 164.156 157.266V89.6719Z" fill="url(#paint4_radial_1_14)"></path><path d="M164.156 89.6719C164.156 49.6744 131.732 17.25 91.7344 17.25C51.7369 17.25 19.3125 49.6744 19.3125 89.6719V157.266C19.3125 197.263 51.7369 229.688 91.7344 229.688C131.732 229.688 164.156 197.263 164.156 157.266V89.6719Z" fill="url(#paint5_radial_1_14)"></path><path d="M164.156 89.6719C164.156 49.6744 131.732 17.25 91.7344 17.25C51.7369 17.25 19.3125 49.6744 19.3125 89.6719V157.266C19.3125 197.263 51.7369 229.688 91.7344 229.688C131.732 229.688 164.156 197.263 164.156 157.266V89.6719Z" fill="url(#paint6_radial_1_14)"></path><g filter="url(#filter0_f_1_14)"><path d="M158.105 70.8136C158.105 66.1854 154.354 62.4335 149.725 62.4335C145.097 62.4335 141.345 66.1854 141.345 70.8136V166.702C141.345 171.33 145.097 175.082 149.725 175.082C154.354 175.082 158.105 171.33 158.105 166.702V70.8136Z" fill="#6F6873"></path></g><path d="M289.688 89.6719C289.688 49.6744 257.263 17.25 217.266 17.25C177.268 17.25 144.844 49.6744 144.844 89.6719V157.266C144.844 197.263 177.268 229.688 217.266 229.688C257.263 229.688 289.688 197.263 289.688 157.266V89.6719Z" fill="url(#paint7_radial_1_14)"></path><path d="M289.688 89.6719C289.688 49.6744 257.263 17.25 217.266 17.25C177.268 17.25 144.844 49.6744 144.844 89.6719V157.266C144.844 197.263 177.268 229.688 217.266 229.688C257.263 229.688 289.688 197.263 289.688 157.266V89.6719Z" fill="url(#paint8_linear_1_14)"></path><path d="M289.688 89.6719C289.688 49.6744 257.263 17.25 217.266 17.25C177.268 17.25 144.844 49.6744 144.844 89.6719V157.266C144.844 197.263 177.268 229.688 217.266 229.688C257.263 229.688 289.688 197.263 289.688 157.266V89.6719Z" fill="url(#paint9_radial_1_14)"></path><path d="M222.094 99.3281C222.094 80.6626 206.962 65.5312 188.297 65.5312C169.631 65.5312 154.5 80.6626 154.5 99.3281V147.609C154.5 166.275 169.631 181.406 188.297 181.406C206.962 181.406 222.094 166.275 222.094 147.609V99.3281Z" fill="url(#paint10_linear_1_14)"></path><path d="M222.094 99.3281C222.094 80.6626 206.962 65.5312 188.297 65.5312C169.631 65.5312 154.5 80.6626 154.5 99.3281V147.609C154.5 166.275 169.631 181.406 188.297 181.406C206.962 181.406 222.094 166.275 222.094 147.609V99.3281Z" fill="url(#paint11_radial_1_14)"></path><path d="M97.166 99.3281C97.166 80.6626 82.0346 65.5312 63.3691 65.5312C44.7036 65.5312 29.5723 80.6626 29.5723 99.3281V147.609C29.5723 166.275 44.7036 181.406 63.3691 181.406C82.0346 181.406 97.166 166.275 97.166 147.609V99.3281Z" fill="url(#paint12_linear_1_14)"></path><path d="M97.166 99.3281C97.166 80.6626 82.0346 65.5312 63.3691 65.5312C44.7036 65.5312 29.5723 80.6626 29.5723 99.3281V147.609C29.5723 166.275 44.7036 181.406 63.3691 181.406C82.0346 181.406 97.166 166.275 97.166 147.609V99.3281Z" fill="url(#paint13_radial_1_14)"></path><path d="M84.3812 102.814C87.968 99.8282 87.802 93.7154 84.0106 89.1606C80.2191 84.6058 74.2378 83.3338 70.651 86.3195C67.0642 89.3051 67.2301 95.4179 71.0216 99.9728C74.8131 104.528 80.7943 105.8 84.3812 102.814Z" fill="url(#paint14_radial_1_14)"></path><path d="M209.879 102.814C213.466 99.8282 213.3 93.7154 209.508 89.1606C205.717 84.6058 199.735 83.3338 196.149 86.3195C192.562 89.3052 192.728 95.4179 196.519 99.9728C200.311 104.528 206.292 105.8 209.879 102.814Z" fill="url(#paint15_radial_1_14)"></path><defs><filter id="filter0_f_1_14" x="129.758" y="50.846" width="39.9352" height="135.824" filterUnits="userSpaceOnUse" color-interpolation-filters="sRGB"><feFlood flood-opacity="0" result="BackgroundImageFix"></feFlood><feBlend mode="normal" in="SourceGraphic" in2="BackgroundImageFix" result="shape"></feBlend><feGaussianBlur stdDeviation="5.79375" result="effect1_foregroundBlur_1_14"></feGaussianBlur></filter><radialGradient id="paint0_radial_1_14" cx="0" cy="0" r="1" gradientUnits="userSpaceOnUse" gradientTransform="translate(116.177 70.3594) rotate(101.077) scale(204.171 157.893)"><stop stop-color="#FAF7FC"></stop><stop offset="0.456846" stop-color="#D8D0DD"></stop><stop offset="0.707884" stop-color="#D0B3E3"></stop><stop offset="1" stop-color="#CFABE4"></stop></radialGradient><linearGradient id="paint1_linear_1_14" x1="-11.165" y1="139.16" x2="81.9136" y2="151.775" gradientUnits="userSpaceOnUse"><stop offset="0.399485" stop-color="#9B969E"></stop><stop offset="1" stop-color="#9A959E" stop-opacity="0"></stop></linearGradient><radialGradient id="paint2_radial_1_14" cx="0" cy="0" r="1" gradientUnits="userSpaceOnUse" gradientTransform="translate(153.388 167.313) rotate(-133.794) scale(193.729 209.696)"><stop offset="0.844296" stop-color="#9A959E" stop-opacity="0"></stop><stop offset="0.948591" stop-color="#949296"></stop></radialGradient><radialGradient id="paint3_radial_1_14" cx="0" cy="0" r="1" gradientUnits="userSpaceOnUse" gradientTransform="translate(184.462 157.991) rotate(-155.387) scale(82.8891 201.541)"><stop offset="0.0216587" stop-color="#D1AFE5"></stop><stop offset="1" stop-color="#D1AFE5" stop-opacity="0"></stop></radialGradient><radialGradient id="paint4_radial_1_14" cx="0" cy="0" r="1" gradientUnits="userSpaceOnUse" gradientTransform="translate(157.271 144.784) rotate(180) scale(53.6052 152.269)"><stop stop-color="#ABA5B0"></stop><stop offset="1" stop-color="#ABA5B0" stop-opacity="0"></stop></radialGradient><radialGradient id="paint5_radial_1_14" cx="0" cy="0" r="1" gradientUnits="userSpaceOnUse" gradientTransform="translate(181.355 166.537) rotate(-137.153) scale(73.114 201.453)"><stop stop-color="#B689D0"></stop><stop offset="1" stop-color="#B689D0" stop-opacity="0"></stop></radialGradient><radialGradient id="paint6_radial_1_14" cx="0" cy="0" r="1" gradientUnits="userSpaceOnUse" gradientTransform="translate(139.607 56.5432) rotate(140.964) scale(33.9397 64.5587)"><stop stop-color="#F3F2F4"></stop><stop offset="1" stop-color="#F3F2F4" stop-opacity="0"></stop></radialGradient><radialGradient id="paint7_radial_1_14" cx="0" cy="0" r="1" gradientUnits="userSpaceOnUse" gradientTransform="translate(247.139 84.8438) rotate(103.51) scale(191.173 147.841)"><stop stop-color="#FAF7FC"></stop><stop offset="0.456846" stop-color="#D8D0DD"></stop><stop offset="0.707884" stop-color="#D0B3E3"></stop><stop offset="1" stop-color="#CFABE4"></stop></radialGradient><linearGradient id="paint8_linear_1_14" x1="114.367" y1="139.16" x2="206.1" y2="147.609" gradientUnits="userSpaceOnUse"><stop offset="0.212017" stop-color="#9B969E"></stop><stop offset="1" stop-color="#9A959E" stop-opacity="0"></stop></linearGradient><radialGradient id="paint9_radial_1_14" cx="0" cy="0" r="1" gradientUnits="userSpaceOnUse" gradientTransform="translate(265.138 56.5432) rotate(140.964) scale(33.9397 64.5587)"><stop stop-color="#F3F2F4"></stop><stop offset="1" stop-color="#F3F2F4" stop-opacity="0"></stop></radialGradient><linearGradient id="paint10_linear_1_14" x1="188.297" y1="65.5312" x2="188.297" y2="181.406" gradientUnits="userSpaceOnUse"><stop offset="0.354167" stop-color="#232224"></stop><stop offset="1" stop-color="#623C86"></stop></linearGradient><radialGradient id="paint11_radial_1_14" cx="0" cy="0" r="1" gradientUnits="userSpaceOnUse" gradientTransform="translate(197.047 117.434) rotate(90) scale(63.9727 20.991)"><stop offset="0.354167" stop-color="#443753"></stop><stop offset="1" stop-color="#433750" stop-opacity="0"></stop></radialGradient><linearGradient id="paint12_linear_1_14" x1="63.3691" y1="65.5312" x2="63.3691" y2="181.406" gradientUnits="userSpaceOnUse"><stop offset="0.354167" stop-color="#232224"></stop><stop offset="1" stop-color="#623C86"></stop></linearGradient><radialGradient id="paint13_radial_1_14" cx="0" cy="0" r="1" gradientUnits="userSpaceOnUse" gradientTransform="translate(72.1201 117.434) rotate(90) scale(63.9727 20.991)"><stop offset="0.354167" stop-color="#443753"></stop><stop offset="1" stop-color="#433750" stop-opacity="0"></stop></radialGradient><radialGradient id="paint14_radial_1_14" cx="0" cy="0" r="1" gradientUnits="userSpaceOnUse" gradientTransform="translate(72.4219 88.163) rotate(87.7397) scale(22.9515 24.1539)"><stop stop-color="white"></stop><stop offset="1" stop-color="#F4F4F4" stop-opacity="0"></stop></radialGradient><radialGradient id="paint15_radial_1_14" cx="0" cy="0" r="1" gradientUnits="userSpaceOnUse" gradientTransform="translate(197.92 88.1624) rotate(87.7397) scale(22.9515 24.1538)"><stop stop-color="white"></stop><stop offset="1" stop-color="#F4F4F4" stop-opacity="0"></stop></radialGradient></defs></svg>