<svg xmlns="http://www.w3.org/2000/svg" width="100" height="100" viewBox="0 0 100 100"><g id="App-Icon" fill="none" fill-rule="evenodd" stroke="none" stroke-width="1"><circle id="Oval" cx="50" cy="50" r="50" fill="#FFF" fill-rule="nonzero"/><g id="Icon" transform="translate(14 14)"><g id="Group-6-Copy"><path id="Path" fill="#0087FF" d="M60.099577,54.5872551 C57.7321795,44.3297769 49.6582444,36.255793 39.4008284,33.8868736 C41.4661204,27.0777002 47.7931501,22.1197633 55.2770448,22.1197633 C64.4397053,22.1197633 71.8681235,29.5482265 71.866616,38.7091335 C71.8681235,46.1948826 66.9099151,52.5216491 60.099577,54.5872551 Z"/><path id="Path" fill="#FF8100" d="M49.7471542,55.2786485 C49.7471542,64.439857 42.3202435,71.8683202 33.1575829,71.8683202 C25.6730853,71.8683202 19.3466586,66.9100818 17.2810651,60.0997024 C27.5384811,57.7322905 35.6127177,49.6583066 37.9798137,39.4008284 C44.7904533,41.4661329 49.7471542,47.7932009 49.7471542,55.2786485 Z"/><path id="Path" fill="#00C8FF" d="M-1.03028697e-13,33.1573776 C-1.03028697e-13,25.6722316 4.95760536,19.3463696 11.7679435,17.2810651 C14.135341,27.5385433 22.2092761,35.6125272 32.4672951,37.9799391 C30.4014001,44.7903185 24.0749734,49.7485569 16.5895712,49.7485569 C7.42781522,49.7485569 -1.03028697e-13,42.3200936 -1.03028697e-13,33.1573776 Z"/><path id="Path" fill="#FB0" d="M22.1197633,16.5896717 C22.1197633,7.42695571 29.547277,-1.42108547e-14 38.709033,-1.42108547e-14 C46.1944352,-1.42108547e-14 52.5202589,4.9579369 54.5855509,11.7683163 C44.3293409,14.1345221 36.2541998,22.2097121 33.8874053,32.4671903 C27.0770672,30.4018857 22.1197633,24.0748178 22.1197633,16.5896717 Z"/></g></g></g></svg>