<svg xmlns="http://www.w3.org/2000/svg" xmlns:xlink="http://www.w3.org/1999/xlink" width="200.00013160705566" height="153.99987411499023" viewBox="0 0 200.00013160705566 153.99987411499023" fill="none"><rect x="0" y="0" width="0" height="0" fill="rgba(249, 249, 249, 1)" /><g opacity="1"  transform="translate(0 0)  rotate(0)"><g opacity="1"  transform="translate(0 0)  rotate(0)"><path id="路径 3" fill-rule="evenodd" style="fill:#544438" opacity="1" d="M61.2981 133.685L61.5781 130.235C62.4681 119.205 62.0881 102.865 60.4581 87.3453L35.8181 87.3453L36.7081 98.7153C37.5881 111.075 35.9081 112.285 35.2081 121.025L34.9281 124.465C34.0081 135.265 41.9281 144.575 52.0381 144.575C55.5681 144.575 58.8881 143.425 61.6581 141.415L62.0681 141.065C61.3681 138.765 61.0781 136.265 61.2981 133.685Z"></path><path id="路径 4" fill-rule="evenodd" style="fill:#7C7C7C" opacity="1" d="M190.448 82.5008L18.5282 66.4608C18.1982 66.4208 17.8682 66.4108 17.5382 66.4108C12.1682 66.4108 7.58823 70.5108 7.07823 75.9808C6.85823 78.3708 7.43823 80.6408 8.60823 82.5308C10.2882 85.2308 13.1682 87.1508 16.5782 87.4708L188.498 103.511C188.828 103.541 189.158 103.561 189.478 103.561C193.198 103.561 196.538 101.591 198.418 98.5708C199.248 97.2208 199.798 95.6708 199.958 93.9808C200.488 88.1808 196.238 83.0408 190.448 82.5008Z"></path><path id="路径 5" fill-rule="evenodd" style="fill:#9D9E9E" opacity="1" d="M190.451 93.6299L18.5307 77.59C18.2007 77.5499 17.8707 77.5399 17.5507 77.5399C13.8307 77.5399 10.4807 79.5099 8.61067 82.5299C10.2907 85.2399 13.1707 87.1499 16.5807 87.4699L188.501 103.51C188.831 103.54 189.151 103.56 189.481 103.56C193.201 103.56 196.541 101.59 198.421 98.5699C196.741 95.8599 193.861 93.9499 190.451 93.6299Z"></path><path id="路径 6" fill-rule="evenodd" style="fill:#937D69" opacity="1" d="M196.48 46.33C196.48 33.54 191.31 21.95 182.95 13.57C174.58 5.19 163.02 0 150.26 0C150.26 0 122.34 1.43 108.88 4.4L102.64 5.5C88.53 8.01 73.16 6.71 58.76 3.83C55.42 3.16 52.04 2.67 48.64 2.34C45.25 2.01 41.84 1.84 38.42 1.82C17.2 1.82 0 17.74 0 37.37C0 63.17 24.01 70.66 28.63 71.74C33.43 72.87 38.43 72.91 43.29 72L47.47 71.21C50.9 70.57 54.26 72.7 55.1 76.08C62.11 104.49 59.68 128.62 59.37 132.28L59.11 135.24C58.26 144.49 65.53 152.48 74.8 152.48C78.56 152.48 82.05 151.14 84.79 148.89C87.53 146.64 89.52 143.46 90.25 139.77L90.3 139.53C92.01 130.92 95.15 101.31 90.12 73.93L90.13 73.93C100.98 77.88 128.23 86.46 152.85 83.35C150.92 122.14 163.14 145.07 163.14 145.07C165.13 150.43 170.22 153.99 175.92 154C185.27 154.02 191.78 144.63 188.86 135.73L188.73 135.35C185.88 126.23 185.79 102 188.5 92.84C192.04 80.89 196.48 64.08 196.48 55.12L196.48 46.33Z"></path><path id="路径 7" fill-rule="evenodd" style="fill:#756252" opacity="1" d="M148.447 54.9549C148.387 54.8949 148.327 54.8249 148.277 54.7649C144.857 50.9649 139.037 50.6049 135.147 53.9149C115.967 70.2849 95.1475 60.5949 95.1475 60.5949C94.0575 60.6649 93.0375 61.2049 92.3775 62.0749L92.0875 62.4449C90.4375 64.6149 89.5575 67.2449 89.5575 69.9349C89.5575 70.8049 89.6575 71.6849 89.8375 72.5549C90.1275 73.9249 90.3975 75.4849 90.3975 75.4849C95.7575 77.3949 100.787 78.3949 107.187 80.1749C125.397 85.2249 141.557 84.7749 152.848 83.3549C153.007 79.5249 153.298 75.9049 153.737 72.6249C154.577 66.2549 152.688 59.7749 148.447 54.9549Z"></path><path id="路径 8" fill-rule="evenodd" style="fill:#544438" opacity="1" d="M163.138 144.328L158.448 129.818C155.808 121.648 154.068 109.938 153.258 97.7381L130.528 97.7381C132.638 109.398 135.558 120.398 138.978 127.938L145.188 141.668C147.828 147.498 153.338 150.818 159.008 150.018L159.008 150.018C161.108 149.708 163.008 148.898 164.648 147.688C164.648 147.688 164.648 147.688 164.648 147.688C164.038 146.648 163.528 145.528 163.138 144.328Z"></path><path id="路径 9" fill-rule="evenodd" style="fill:#756252" opacity="1" d="M66.8243 27.0669C63.2543 21.9769 58.4443 18.4169 53.8143 18.2269C48.3743 17.9969 46.3643 22.5669 38.7343 22.5269C31.0443 22.4969 29.0543 17.8469 23.5843 17.9869C18.8143 18.1169 13.7643 21.8069 10.0343 27.1069C6.66433 31.9069 4.37433 38.0169 4.37433 43.9969C4.37433 45.1769 4.46433 46.3469 4.62433 47.4869C6.58433 61.3369 20.0943 72.1669 36.7443 72.8469C37.2943 72.8769 37.8543 72.8869 38.4243 72.8869C38.9843 72.8869 39.5443 72.8769 40.1043 72.8469C56.6743 72.1669 70.1343 61.4369 72.1943 47.6869C72.3743 46.4769 72.4643 45.2469 72.4643 43.9969C72.4643 38.0269 70.1943 31.8669 66.8243 27.0669Z"></path></g><g opacity="1"  transform="translate(7.9711456298828125 24.428253173828125)  rotate(0)"><path id="路径 10" fill-rule="evenodd" style="fill:#EAE6E1" opacity="1" d="M55.8504 8.12C52.6604 3.57 48.3604 0.38 44.2204 0.21C39.3504 0.01 37.5604 4.09 30.7304 4.06C23.8504 4.03 22.0804 -0.13 17.1804 0C12.9104 0.12 8.4004 3.42 5.0604 8.16C2.0504 12.45 0.000396729 17.92 0.000396729 23.26C0.000396729 24.32 0.0803967 25.36 0.220397 26.39C1.9804 38.77 14.0604 48.45 28.9504 49.07C29.4504 49.09 29.9504 49.1 30.4504 49.1C30.9504 49.1 31.4504 49.09 31.9504 49.07C46.7704 48.46 58.8104 38.86 60.6604 26.56C60.8204 25.48 60.9004 24.38 60.9004 23.26C60.9004 17.92 58.8704 12.41 55.8504 8.12Z"></path><path id="路径 11" fill-rule="evenodd" style="fill:#C4AD90" opacity="1" d="M18.29 12.6773L11.06 8.50727C9.13 7.38727 6.92 7.35727 5.06 8.15727C2.05 12.4473 0 17.9173 0 23.2673C0 24.3173 0.08 25.3673 0.22 26.3873C1.94 28.7273 5.13 29.9173 8.23 28.6173L8.56 28.4773L17.28 24.8073L17.54 24.6973C22.65 22.5473 23.09 15.4573 18.29 12.6773Z"></path><path id="路径 12" fill-rule="evenodd" style="fill:#C4AD90" opacity="1" d="M55.8556 8.11884C54.0156 7.35884 51.8456 7.40884 49.9456 8.50884L42.7256 12.6788C37.9156 15.4588 38.3556 22.5488 43.4756 24.6988L43.6156 24.7588L52.3756 28.4388C52.3756 28.4388 52.3756 28.4388 52.3856 28.4388L52.7856 28.6088C55.8056 29.8788 58.9056 28.7788 60.6556 26.5588C60.8156 25.4788 60.8956 24.3788 60.8956 23.2588C60.8956 17.9188 58.8656 12.4188 55.8556 8.11884Z"></path><path id="路径 13" fill-rule="evenodd" style="fill:#000000" opacity="1" d="M12.0449 19.2966C9.1449 19.2966 6.8049 21.6466 6.8049 24.5466C6.8049 26.1066 7.4849 27.5166 8.5549 28.4766L17.2849 24.8066C17.2849 24.7166 17.2849 24.6366 17.2849 24.5466C17.2849 21.6466 14.9449 19.2966 12.0449 19.2966Z"></path><path id="路径 14" fill-rule="evenodd" style="fill:#000000" opacity="1" d="M48.8506 19.2966C45.9606 19.2966 43.6106 21.6466 43.6106 24.5466C43.6106 24.6166 43.6106 24.6866 43.6206 24.7566L52.3806 28.4466C52.3806 28.4466 52.3806 28.4466 52.3806 28.4466C53.4306 27.4766 54.0906 26.0966 54.0906 24.5466C54.0906 21.6466 51.7506 19.2966 48.8506 19.2966Z"></path><path id="路径 15" fill-rule="evenodd" style="fill:#585959" opacity="1" d="M28.254 24.5515C24.144 24.5515 21.824 29.2615 24.304 32.5315L26.504 35.4315C27.154 36.2815 28.014 36.8515 28.954 37.1515L28.954 49.0715C29.444 49.0915 29.944 49.1015 30.454 49.1015C30.954 49.1015 31.454 49.0915 31.954 49.0715L31.954 37.1515C32.884 36.8515 33.744 36.2815 34.394 35.4315L36.594 32.5315C39.074 29.2615 36.754 24.5515 32.654 24.5515L28.254 24.5515Z"></path></g></g></svg>