<?xml version="1.0" standalone="no"?><!DOCTYPE svg PUBLIC "-//W3C//DTD SVG 1.1//EN" "http://www.w3.org/Graphics/SVG/1.1/DTD/svg11.dtd"><svg t="1709429323827" class="icon" viewBox="0 0 1024 1024" version="1.1" xmlns="http://www.w3.org/2000/svg" p-id="7431" width="260" height="260" xmlns:xlink="http://www.w3.org/1999/xlink"><path d="M492.4 821.6c-65.6 0-127.2-25.2-173.6-71.2C271.6 704 245.6 642 245.2 576c-0.4-66 24.8-128.4 71.6-175.2 46.8-47.2 109.2-73.2 175.6-73.2 65.6 0 127.2 25.2 173.6 71.2 96.8 96 97.6 252.8 2 349.6-46.8 47.2-109.2 73.2-175.6 73.2z m0-481.6c-63.2 0-122.4 24.8-166.8 69.6-44 44.4-68 103.6-67.6 166.4 0.4 62.8 25.2 121.6 69.6 165.6 44 43.6 102.8 67.6 164.8 67.6 63.2 0 122.4-24.8 166.8-69.6 90.8-92 90-240.8-2-331.6-44-44-102.8-68-164.8-68z m0 403.2c-44.8 0-86.8-17.2-118.4-48.8-32-31.6-50-74-50-118.8-0.4-45.2 17.2-87.6 48.8-119.6 32-32.4 74.4-50 120-50 44.8 0 86.8 17.2 118.4 48.8 32 31.6 50 74 50 118.8 0.4 45.2-17.2 87.6-48.8 119.6-32 32.4-74.8 50-120 50z m0-324.4c-42 0-81.6 16.4-110.8 46.4-29.2 29.6-45.2 68.8-45.2 110.4 0.4 41.6 16.8 80.8 46.4 110 29.6 29.2 68.4 45.2 109.6 45.2 42 0 81.6-16.4 110.8-46.4 29.2-29.6 45.2-68.8 45.2-110.8-0.4-41.6-16.8-80.8-46.4-110-29.2-28.8-68.4-44.8-109.6-44.8z" fill="#4A555F" p-id="7432"></path><path d="M334 732.8c-87.2-87.2-87.2-229.2 0-316.4 87.2-87.2 229.2-87.2 316.4 0 87.2 87.2 87.2 229.2 0 316.4-86.8 87.2-229.2 87.2-316.4 0z m285.2-284.8c-34-34-78.8-52.4-126.8-52.4s-92.8 18.8-126.8 52.4c-34 34-52.4 78.8-52.4 126.8s18.8 92.8 52.4 126.8c70 70 183.6 70 253.6 0s70-183.6 0-253.6z" fill="#FFD552" p-id="7433"></path><path d="M168.8 981.2l-83.2-83.2 157.6-157.6c11.2-11.2 26-17.2 41.6-17.2 15.6 0 30.4 6 41.6 17.2 11.2 11.2 17.2 26 17.2 41.6 0 15.6-6 30.4-17.2 41.6l-157.6 157.6z m-65.2-82.8l65.2 65.2 148.8-148.8c8.8-8.8 13.6-20.4 13.6-32.8 0-12.4-4.8-24-13.6-32.8-8.8-8.8-20.4-13.6-32.8-13.6-12.4 0-24 4.8-32.8 13.6l-148.4 149.2z" fill="#4A555F" p-id="7434"></path><path d="M259.2 756.4c14-14 37.2-14 51.2 0 6.8 6.8 10.8 16 10.8 25.6 0 9.6-3.6 18.8-10.8 25.6l-142 142-51.2-51.2 142-142z" fill="#F68F6F" p-id="7435"></path><path d="M121.6 1016.4c-8 0-15.6-3.2-21.2-8.8L60 967.2c-5.6-5.6-8.8-13.2-8.8-21.2s3.2-15.6 8.8-21.2l34.8-34.8 83.2 83.2-34.8 34.8c-6 5.2-13.6 8.4-21.6 8.4z m-27.2-109.2l-26 26c-3.2 3.2-5.2 7.6-5.2 12.4 0 4.8 2 9.2 5.2 12.4l40.4 40.4c3.2 3.2 7.6 5.2 12.4 5.2 4.8 0 9.2-2 12.4-5.2l26-26-65.2-65.2z" fill="#4A555F" p-id="7436"></path><path d="M75.6 950.8c-1.2-1.6-2-3.2-2-5.2s0.8-4 2.4-5.6l18.8-18.8 51.2 51.2-19.2 19.2c-2.8 2.8-8 2.8-10.8 0l-40.4-40.8z" fill="#FFD552" p-id="7437"></path><path d="M874 647.6h-128l2-8c22.8-90-3.6-186.4-69.2-251.6-50-50-116-77.2-186.4-77.2S355.6 338.4 306 388c-50 50-77.2 116-77.2 186.8 0 22 2.8 44 8 65.2l2 8h-25.6C95.6 647.6 0 552 0 434.4s95.6-213.2 213.2-213.2c4 0 8.4 0 12.8 0.4C270.8 93.6 391.6 7.6 528 7.6c176.4 0 320 143.6 320 320 0 7.2-0.4 14.8-0.8 22.8 8.8-1.6 18-2.4 27.2-2.4 82.8 0 150 67.2 150 150-0.4 82.4-67.6 149.6-150.4 149.6z m-112-12.4h112c75.6 0 137.2-61.6 137.2-137.2s-61.6-137.2-137.2-137.2c-10.8 0-21.6 1.2-32.4 4l-8.4 2 0.8-8.8c0.8-10.4 1.6-20.4 1.6-30 0-169.6-138-307.2-307.2-307.2-132.4 0-249.6 84.4-291.6 210l-1.6 4.8-4.8-0.4c-6-0.4-11.6-0.8-16.8-0.8-111.2-0.4-201.2 89.6-201.2 200s90 200.4 200.4 200.4h9.6c-4.4-19.6-6.4-40-6.4-60.4 0-74 28.8-143.2 80.8-195.6 52-52 121.6-80.8 195.6-80.8s143.2 28.8 195.6 80.8c66.4 66.8 94.4 164.4 74 256.4z" fill="#4A555F" p-id="7438"></path><path d="M779.6 620.4c14.4-91.2-15.6-185.6-81.6-251.6-55.2-54.8-128-85.2-206-85.2-77.6 0-150.8 30.4-206 85.2-54.8 55.2-85.2 128-85.2 206 0 15.2 1.2 30.4 3.6 45.6-98.4-4.4-177.2-86-177.2-186 0-102.4 83.6-186 186-186 4.8 0 10 0.4 15.6 0.8l16.4 1.2 5.2-15.6c40-119.6 151.6-200 277.6-200 161.6 0 292.8 131.2 292.8 292.8 0 9.2-0.4 18.8-1.6 28.4l-2.8 29.2 28.4-6.8c9.6-2.4 19.6-3.6 29.2-3.6 67.6 0 122.8 55.2 122.8 122.8s-55.2 122.8-122.8 122.8h-94.4z" fill="#E0E0E0" p-id="7439"></path><path d="M492.4 821.6c-66 0-128-25.6-174.8-72.4-46.8-46.8-72.4-108.8-72.4-174.8 0-66 25.6-128 72.4-174.8 46.8-46.8 108.8-72.4 174.8-72.4 66 0 128 25.6 174.8 72.4 96.4 96.4 96.4 253.2 0 349.6-46.8 46.8-108.8 72.4-174.8 72.4z m0-481.6c-62.8 0-121.6 24.4-166 68.8-44.4 44.4-68.8 103.2-68.8 166s24.4 121.6 68.8 166c44.4 44.4 103.2 68.8 166 68.8s121.6-24.4 166-68.8c91.6-91.6 91.6-240.4 0-331.6C614 364.4 555.2 340 492.4 340z m0 403.2c-45.2 0-87.2-17.6-119.2-49.2-32-32-49.6-74-49.6-119.2s17.6-87.2 49.2-119.2c32-32 74-49.2 119.2-49.2s87.2 17.6 119.2 49.2c32 32 49.2 74 49.6 119.2 0 45.2-17.6 87.2-49.2 119.2-32 31.6-74 49.2-119.2 49.2z m0-324.4c-41.6 0-80.8 16.4-110.4 45.6-29.6 29.6-45.6 68.8-45.6 110.4 0 41.6 16.4 80.8 45.6 110.4 29.6 29.6 68.8 45.6 110.4 45.6 41.6 0 80.8-16.4 110.4-45.6 29.6-29.6 45.6-68.8 45.6-110.4 0-41.6-16.4-80.8-45.6-110.4-29.6-29.6-68.8-45.6-110.4-45.6z" fill="#4A555F" p-id="7440"></path><path d="M498.8 627.2h-12.4v-14.8c0-16 9.6-30.4 24.4-36.4 19.6-8 30.8-27.6 28.4-48.8-2.4-21.6-19.6-38.8-41.2-41.2-13.6-1.6-26.8 2.8-36.8 11.6-10 8.8-15.6 21.6-15.6 35.2h-12.4c0-16.8 7.2-33.2 20-44.4 12.8-11.2 29.6-16.8 46.4-14.8 27.2 3.2 49.6 25.2 52.4 52.4 2.8 26.8-11.6 51.6-36.4 61.6-10 4.4-16.8 14-16.8 24.8v14.8z" fill="#4A555F" p-id="7441"></path><path d="M486 648.8h12.4v21.2h-12.4z" fill="#4A555F" p-id="7442"></path><path d="M492.4 927.6h-11.2l0.4-12.4h12.4v12.4h-1.6z m14.4-0.4l-0.4-12.4c4 0 8.4-0.4 12.4-0.8l0.8 12.4c-4.4 0.4-8.8 0.4-12.8 0.8z m-38.4-0.4c-4.4-0.4-8.4-0.8-12.8-1.2l1.2-12.4c4 0.4 8 0.8 12.4 1.2l-0.8 12.4z m63.6-1.6l-1.6-12.4c4-0.4 8-0.8 12.4-1.6l2 12.4c-4 0.4-8.4 1.2-12.8 1.6z m-89.2-1.2c-4.4-0.4-8.4-1.2-12.8-2l2-12.4c4 0.8 8 1.2 12 2l-1.2 12.4z m114.8-2.4l-2.4-12.4 12-2.4 2.8 12.4c-4 0.8-8.4 1.6-12.4 2.4z m-140-2c-4-0.8-8.4-2-12.4-2.8l3.2-12c4 1.2 8 2 12 2.8l-2.8 12z m164.8-3.6l-3.2-12c4-1.2 8-2 12-3.2l3.6 12c-4.4 0.8-8.4 2-12.4 3.2z m-189.2-2.8c-4-1.2-8-2.4-12-4l4-12c4 1.2 8 2.4 11.6 3.6l-3.6 12.4z m213.6-4.8l-4-12c4-1.2 7.6-2.8 11.6-4l4.4 11.6c-4 1.6-8 3.2-12 4.4z m-238-3.2l-12-4.8 4.8-11.6c3.6 1.6 7.6 3.2 11.6 4.4l-4.4 12z m261.6-6l-4.8-11.6c3.6-1.6 7.6-3.2 11.2-5.2l5.2 11.2c-3.6 2.4-7.6 4-11.6 5.6z m-285.2-4c-4-1.6-7.6-3.6-11.6-5.6l5.6-11.2c3.6 2 7.2 3.6 11.2 5.2l-5.2 11.6z m308.4-6.8l-5.6-11.2 10.8-6 6 10.8c-3.6 2.4-7.2 4.4-11.2 6.4z m22.4-12.4l-6.4-10.8c3.6-2 6.8-4.4 10.4-6.8l6.8 10.4c-3.6 2.8-7.2 4.8-10.8 7.2z m21.2-14l-7.2-10.4c3.2-2.4 6.8-4.8 10-7.2l7.6 10c-3.6 2.4-6.8 5.2-10.4 7.6z m20.4-15.6l-8-9.6c3.2-2.8 6.4-5.2 9.2-8l8.4 9.2-9.6 8.4z m18.8-17.2l-8.8-9.2c2.8-2.8 6-5.6 8.8-8.8l9.2 8.8c-2.8 3.2-6 6.4-9.2 9.2z m18-18.4l-9.2-8.4c2.8-3.2 5.6-6 8-9.2l9.6 8c-2.8 3.6-5.6 6.8-8.4 9.6z m16.4-19.2l-10-7.6c2.4-3.2 4.8-6.4 7.6-10l10 7.2c-2.4 3.6-5.2 6.8-7.6 10.4z m14.8-20.8l-10.4-6.8c2.4-3.6 4.4-6.8 6.8-10.4l10.8 6.8c-2.4 3.2-4.8 6.8-7.2 10.4z m13.6-22l-10.8-6.4 6-10.8 11.2 6c-2.4 4-4.4 7.6-6.4 11.2z m12-22.4l-11.2-5.2c1.6-3.6 3.6-7.6 5.2-11.2l11.6 4.8c-2 3.6-4 7.6-5.6 11.6z m10-23.6l-11.6-4.4c1.6-4 2.8-7.6 4.4-11.6l12 4-4.8 12z m8.4-24.4l-12-3.6 3.6-12 12 3.2c-1.2 4.4-2.4 8.4-3.6 12.4z" fill="#4A555F" p-id="7443"></path><path d="M842.4 620l-12.4-1.6c0.4-4 0.8-8 1.2-12.4l12.4 1.2c-0.4 4.4-0.8 8.4-1.2 12.8z m-701.2-10.8c-0.4-4.4-0.8-8.4-1.2-12.8l12.4-0.8c0.4 4 0.4 8.4 0.8 12.4l-12 1.2z m703.6-14.8l-12.4-0.8c0.4-4 0.4-8 0.4-12.4l12.4 0.4c0 4.4-0.4 8.8-0.4 12.8z m-705.2-10.8v-8.8-4H152v12l-12.4 0.8z m692.8-14.4c0-4-0.4-8.4-0.4-12.4l12.4-0.8c0.4 4.4 0.4 8.4 0.4 12.8l-12.4 0.4z m-680-10.8l-12.4-0.4c0-4.4 0.4-8.4 0.8-12.8l12.4 1.2c-0.4 4-0.4 8-0.8 12z m678.8-14c-0.4-4-0.8-8-1.2-12.4l12.4-1.6c0.4 4.4 0.8 8.4 1.2 12.8l-12.4 1.2z m-676.8-10.4l-12.4-1.6c0.4-4.4 1.2-8.4 1.6-12.8l12.4 2c-0.4 4.4-0.8 8.4-1.6 12.4z m674-14c-0.8-4-1.2-8-2-12l12.4-2.4c0.8 4 1.6 8.4 2.4 12.4l-12.8 2z m-670-10.4l-12.4-2.4c0.8-4 1.6-8.4 2.8-12.4l12.4 2.8c-1.2 4-2 8-2.8 12z m665.2-13.6c-0.8-4-2-8-3.2-12l12-3.2c1.2 4 2 8.4 3.2 12.4l-12 2.8zM164 485.6l-12-3.2c1.2-4 2.4-8.4 3.6-12.4l12 3.6c-1.6 4-2.8 8-3.6 12z m652.8-13.6c-1.2-4-2.4-8-4-11.6l12-4.4c1.6 4 2.8 8 4 12l-12 4z m-645.6-10l-12-4c1.6-4 2.8-8 4.4-12l11.6 4.4c-1.2 4-2.8 8-4 11.6z m637.6-13.2c-1.6-4-3.2-7.6-4.8-11.2l11.6-5.2c1.6 4 3.2 8 4.8 11.6l-11.6 4.8z m-628.4-9.6l-11.6-5.2c1.6-4 3.6-8 5.2-11.6l11.2 5.6c-1.6 3.6-3.2 7.2-4.8 11.2z m618.4-12.8c-1.6-3.6-3.6-7.2-5.6-10.8l11.2-6c2 3.6 4 7.6 5.6 11.2l-11.2 5.6z m-608-9.6l-11.2-6c2-3.6 4-7.6 6-11.2l10.8 6.4c-1.6 3.6-3.6 7.2-5.6 10.8z m596.4-12c-2-3.6-4-7.2-6.4-10.4l10.8-6.8c2.4 3.6 4.4 7.2 6.4 10.8l-10.8 6.4z m-584-9.2l-10.8-6.8c2.4-3.6 4.4-7.2 6.8-10.8l10.4 7.2c-2 3.2-4.4 6.8-6.4 10.4zM774 384c-2.4-3.2-4.8-6.8-7.2-10l10-7.6c2.4 3.6 4.8 6.8 7.2 10.4l-10 7.2zM216.8 374.8l-10-7.2c2.4-3.6 5.2-6.8 7.6-10.4l10 7.6c-2.8 3.6-5.2 6.8-7.6 10zM759.6 364c-2.4-3.2-5.2-6.4-8-9.6l9.6-8c2.8 3.2 5.6 6.4 8 10l-9.6 7.6zM232 355.6l-9.6-8 8.4-9.6 9.2 8.4c-2.4 2.8-5.2 6-8 9.2z m511.6-10.4c-2.8-3.2-5.6-6-8.4-8.8l8.8-8.8c2.8 3.2 6 6 8.8 9.2l-9.2 8.4z m-494.8-8L240 328.4c2.8-3.2 6-6 9.2-8.8l8.8 9.2c-3.6 2.8-6.4 5.6-9.2 8.4z m477.6-9.6c-2.8-2.8-6-5.6-9.2-8.4l8.4-9.6c3.2 2.8 6.4 5.6 9.6 8.8l-8.8 9.2z m-460-7.2l-8.4-9.2 9.6-8.4 8 9.6c-2.8 2.4-6 5.2-9.2 8zM708 311.2c-3.2-2.8-6.4-5.2-9.6-7.6l7.6-10c3.2 2.4 6.8 5.2 10 8l-8 9.6zM285.6 304.4l-7.6-10c3.2-2.4 6.8-5.2 10.4-7.6l7.2 10.4c-3.6 2.4-6.8 4.8-10 7.2z m402.8-8c-3.2-2.4-6.8-4.8-10.4-6.8l6.8-10.4c3.6 2.4 7.2 4.8 10.4 7.2l-6.8 10z m-382.8-6L298.4 280c3.6-2.4 7.2-4.8 10.8-6.8l6.4 10.8c-3.2 2-6.8 4-10 6.4z m362-7.6l-10.8-6 6-10.8c3.6 2 7.6 4.4 11.2 6.4l-6.4 10.4z m-341.2-5.2l-6-10.8c3.6-2 7.6-4 11.2-6l5.6 11.2c-3.6 1.6-7.2 3.6-10.8 5.6z m319.6-6.4c-3.6-2-7.2-3.6-11.2-5.2l5.2-11.2c4 1.6 7.6 3.6 11.6 5.6l-5.6 10.8z m-297.6-4.8l-5.2-11.2c4-1.6 7.6-3.6 11.6-5.2l4.8 11.6c-3.6 1.2-7.6 2.8-11.2 4.8z m275.2-5.6c-3.6-1.6-7.6-3.2-11.6-4.4l4.4-11.6 12 4.8-4.8 11.2z m-252.4-4l-4.4-11.6c4-1.6 8-2.8 12-4.4l4 12c-4 1.2-8 2.4-11.6 4z m229.2-4.8c-4-1.2-8-2.4-11.6-3.6l3.6-12c4 1.2 8 2.4 12 4l-4 11.6z m-206-3.2l-3.6-12c4-1.2 8-2.4 12.4-3.6l3.2 12-12 3.6z m182.4-4c-4-1.2-8-2-12-2.8l2.8-12.4c4 0.8 8.4 2 12.4 2.8l-3.2 12.4z m-158.8-2.4l-2.8-12.4c4-0.8 8.4-1.6 12.4-2.4l2.4 12.4-12 2.4z m134.8-2.8c-4-0.8-8-1.2-12-2l1.6-12.4c4.4 0.8 8.4 1.2 12.8 2l-2.4 12.4z m-110.4-1.6l-2-12.4c4.4-0.8 8.4-1.2 12.8-1.6l1.2 12.4c-4 0.4-8 1.2-12 1.6z m86-1.6c-4-0.4-8-0.8-12.4-1.2l0.8-12.4c4.4 0.4 8.4 0.8 12.8 1.2l-1.2 12.4z m-61.6-1.2l-0.8-12.4c4.4-0.4 8.4-0.4 12.8-0.8l0.4 12.4c-4 0.4-8.4 0.8-12.4 0.8z m37.2-0.8h-12.4v-12.4h12.8l-0.4 12.4z" fill="#4A555F" p-id="7444"></path><path d="M191.2 758.4c-2.4-3.6-4.4-7.2-6.4-11.2l10.8-6c2 3.6 4 7.2 6.4 10.8l-10.8 6.4z m-12.4-22c-2-3.6-4-7.6-5.6-11.6l11.2-5.2c1.6 3.6 3.6 7.6 5.6 11.2l-11.2 5.6z m-10.8-23.2l-4.8-12 11.6-4.4c1.6 4 3.2 7.6 4.8 11.6l-11.6 4.8z m-9.2-24c-1.2-4-2.8-8-4-12l12-3.6c1.2 4 2.4 8 3.6 11.6l-11.6 4z m-7.6-24.4c-0.4-2-1.2-4-1.6-6l-1.6-6 12-3.2 1.6 6c0.4 2 1.2 4 1.6 6l-12 3.2z" fill="#4A555F" p-id="7445"></path><path d="M334.4 930L304 869.2l66-19.2 3.6 12-51.6 15.2 23.6 47.2z" fill="#4A555F" p-id="7446"></path></svg>