<svg width="32" height="32" viewBox="0 0 32 32" fill="none" xmlns="http://www.w3.org/2000/svg">
          <path d="M16 31.5C24.5604 31.5 31.5 24.5604 31.5 16C31.5 7.43959 24.5604 0.5 16 0.5C7.43959 0.5 0.5 7.43959 0.5 16C0.5 24.5604 7.43959 31.5 16 31.5Z" fill="black"></path>
          <path fill-rule="evenodd" clip-rule="evenodd" d="M15.9903 18.7628C18.9969 14.7419 19.1296 12.3051 15.9903 8C12.7911 12.397 13.2035 14.7276 15.9903 18.7628ZM14.5624 24C15.0403 19.0962 13.8668 16.9231 8.87188 14.6792C8.42606 19.9998 10.0154 21.8232 14.5624 24ZM17.4373 24C16.9594 19.0962 18.1328 16.9231 23.1278 14.6792C23.5736 19.9998 21.9842 21.8232 17.4373 24Z" fill="white"></path>
        </svg>