<svg id="white" xmlns="http://www.w3.org/2000/svg" viewBox="0 0 605 90"><defs><style>.cls-1{fill:#2d2d2d;}.cls-2{fill:#ff3860;}</style></defs><title>Outlane logo</title><path class="cls-1" d="M120,45.29a35.65,35.65,0,0,1,2.57-13.81A30.34,30.34,0,0,1,129.63,21a31.48,31.48,0,0,1,10.8-6.66A38.63,38.63,0,0,1,154.07,12a39.27,39.27,0,0,1,13.77,2.34A31.9,31.9,0,0,1,178.73,21a30,30,0,0,1,7.15,10.48,35.65,35.65,0,0,1,2.57,13.81,35.16,35.16,0,0,1-2.57,13.64,31.45,31.45,0,0,1-7.15,10.62,32.51,32.51,0,0,1-10.89,6.93A37.35,37.35,0,0,1,154.07,79a36.75,36.75,0,0,1-13.64-2.47,31.42,31.42,0,0,1-17.91-17.55A35.16,35.16,0,0,1,120,45.29Zm12.33,0a27,27,0,0,0,1.58,9.41,21.86,21.86,0,0,0,4.5,7.42A20.64,20.64,0,0,0,145.29,67a21.83,21.83,0,0,0,8.87,1.75A22.16,22.16,0,0,0,163.07,67a20.54,20.54,0,0,0,7-4.91,21.92,21.92,0,0,0,4.5-7.42,27.05,27.05,0,0,0,1.58-9.41,26.14,26.14,0,0,0-1.58-9.18,22.41,22.41,0,0,0-4.46-7.38,20.63,20.63,0,0,0-6.93-4.95,21.93,21.93,0,0,0-9-1.8,21.61,21.61,0,0,0-9,1.8,20.72,20.72,0,0,0-6.88,4.95,22.37,22.37,0,0,0-4.46,7.38A26.1,26.1,0,0,0,132.29,45.29Z"/><path class="cls-1" d="M259.19,53.93a26.22,26.22,0,0,1-2,10.39,23.3,23.3,0,0,1-5.4,7.88,23.79,23.79,0,0,1-8.1,5,30.36,30.36,0,0,1-20.34,0,24.24,24.24,0,0,1-8.14-5,22.45,22.45,0,0,1-5.4-7.87,26.73,26.73,0,0,1-1.93-10.39V13.61h11.34V53.48A21.66,21.66,0,0,0,220,59a13.57,13.57,0,0,0,2.38,4.91,12.31,12.31,0,0,0,4.41,3.51,17.78,17.78,0,0,0,13.59,0,12.33,12.33,0,0,0,4.41-3.51A13.6,13.6,0,0,0,247.13,59a21.75,21.75,0,0,0,.72-5.54V13.61h11.34Z"/><path class="cls-1" d="M294.56,23.51H275v-9.9h50.4v9.9H305.9V77.33H294.56Z"/><path class="cls-1" d="M341.81,13.61h11.34V67.25h27.09V77.33H341.81Z"/><path class="cls-1" d="M402.29,77.33H390.14l26-63.72h11.43l26.28,63.72H441.44L421.91,28.82Z"/><path class="cls-1" d="M470.24,13.61h15l29.61,47.7h.18V13.61H526.4V77.33H512L481.76,28.1h-.18V77.33H470.24Z"/><path class="cls-1" d="M549.44,13.61h42.21v9.9H560.78v16.2H590v9.54H560.78v18h32.49V77.33H549.44Z"/><path class="cls-2" d="M89.88,40.5H80.82a36,36,0,0,0-71.44,0H.32a45,45,0,0,1,89.56,0Z"/><path class="cls-2" d="M89.88,49.5a45,45,0,0,1-89.56,0H9.38a36,36,0,0,0,71.44,0Z"/><circle class="cls-2" cx="45.1" cy="45" r="27"/></svg>